<svg width="61" height="33" viewBox="0 0 61 33" fill="none" xmlns="http://www.w3.org/2000/svg">
<rect x="1.5" y="1.5" width="59" height="7" rx="3.5" stroke="white"/>
<path d="M5.48428 2.58422C5.61331 2.44101 6.69466 1.14082 6.45976 1.33933C5.59389 2.07106 4.7833 2.86199 4.07681 3.75015C3.91213 3.95718 2.87223 5.10548 3.01308 5.42239C3.02848 5.45706 4.77806 3.77638 4.85255 3.69905C5.68132 2.8387 6.58253 2.01306 7.36091 1.10707C7.40472 1.05608 7.21946 1.11766 7.16582 1.15817C6.69562 1.51322 6.26935 1.93866 5.85125 2.35197C5.10022 3.09436 4.43928 3.91168 3.88172 4.80924C3.4151 5.56038 3.68422 5.30039 4.1372 4.85104C5.01998 3.97532 5.9391 3.13809 6.88711 2.33339C8.08794 1.31407 6.6914 2.78461 6.39937 3.09054C5.73349 3.78813 5.06736 4.49752 4.50416 5.28304C3.73662 6.35356 5.09899 5.22842 5.39138 4.98111C6.48076 4.05969 7.47929 2.97177 8.66154 2.16616C9.06854 1.88883 8.65209 2.42714 8.62903 2.4588C7.99853 3.3244 7.29535 4.13518 6.62234 4.96717C6.14249 5.56037 5.61876 6.168 5.26132 6.84844C4.97334 7.39663 5.55862 6.93523 5.67938 6.83915C7.32862 5.52699 8.70881 3.87972 10.436 2.66319C11.7744 1.7205 9.6468 4.3026 9.52554 4.44692C8.82602 5.27944 8.11936 6.10705 7.44452 6.95993C7.11883 7.37155 6.08727 8.40476 6.59911 8.28843C6.9498 8.20873 7.62463 7.3431 7.8022 7.16431C8.59058 6.37053 9.38374 5.58399 10.213 4.83246C11.0622 4.06291 11.926 3.27239 12.8654 2.61209C14.2361 1.6486 12.5316 3.54293 12.4613 3.62008C11.213 4.98964 9.88524 6.29753 8.70335 7.72637C8.62459 7.8216 8.54661 7.91778 8.47574 8.01902C8.45937 8.0424 8.53895 8.02041 8.55935 8.00043C9.39653 7.18052 10.1882 6.31711 11.0398 5.51065C11.8073 4.78389 12.5998 4.08169 13.4321 3.42963C13.6593 3.25164 13.8869 3.07366 14.1242 2.90938C14.3111 2.77998 14.7805 2.40588 14.7467 2.63067C14.6663 3.16385 13.492 4.16544 13.2091 4.47943C12.1696 5.63321 11.076 6.76996 10.1851 8.04689C8.92697 9.85027 11.5142 7.37179 11.7413 7.14109C12.7659 6.10013 13.7648 5.0339 14.8117 4.01492C15.3673 3.47412 16.088 2.79654 16.6976 2.29623C16.9857 2.05974 17.2571 1.72269 17.6266 1.67378C18.0114 1.62286 17.2037 2.32854 16.9438 2.61674C16.4461 3.16862 15.9254 3.7024 15.462 4.28434C15.3401 4.43738 14.0572 6.26341 14.9325 5.5571C16.1473 4.57672 17.3025 3.51728 18.5835 2.62138C18.9274 2.38087 19.8336 1.67015 19.7169 2.07326C19.5062 2.80125 18.3195 3.61375 17.8124 4.11711C17.3111 4.61477 16.7608 5.1075 16.3864 5.71504C16.2133 5.99594 16.0279 6.57174 16.6001 6.30032C18.4205 5.43679 19.8764 3.54634 21.4356 2.30552C21.6615 2.1258 21.8912 1.95064 22.1278 1.78526C22.3038 1.66219 22.6864 1.30273 22.713 1.51585C22.7492 1.80506 21.7953 2.66781 21.6865 2.78861C20.9403 3.61644 20.1825 4.43419 19.4707 5.29233C19.2484 5.56046 18.0566 6.76351 18.2259 7.25257C18.3485 7.60702 18.8532 6.83094 19.1131 6.56045C19.9448 5.69466 20.7595 4.81928 21.6261 3.98705C22.6087 3.04343 23.6236 2.05602 24.7522 1.28359C24.9208 1.1682 25.0924 1.01992 25.2957 1.00024C25.372 0.992854 25.3645 1.16032 25.3282 1.22785C25.0889 1.67382 24.0779 2.80284 23.8325 3.07661C22.3688 4.70993 20.3538 6.28156 19.3732 8.28843C19.3348 8.36705 19.2737 8.46565 19.3128 8.54391C19.4182 8.75479 19.7321 8.3164 19.9027 8.15372C21.0223 7.08648 21.9805 5.84976 23.0521 4.73491C24.0309 3.71663 25.044 2.7235 26.1086 1.79455C26.2786 1.64622 26.453 1.50257 26.6335 1.3672C26.9938 1.09701 26.7265 1.38447 26.6196 1.49726C24.6888 3.53389 22.3795 5.33621 20.8039 7.68457C19.7607 9.23934 21.6952 7.70592 22.0674 7.38728C22.517 7.00227 27.4219 2.58844 27.6926 2.95583C27.8679 3.19368 25.3407 5.3181 25.0449 5.66394C24.8644 5.87499 24.3959 6.31469 24.6593 6.40251C24.9809 6.50969 25.3105 6.20506 25.6162 6.05877C26.103 5.82585 27.3507 5.176 27.8087 4.93465C27.8535 4.91105 29.1172 4.35238 29.2301 4.1264C29.298 3.99065 28.9267 4.1372 28.7749 4.13569C28.214 4.13014 27.7552 3.91076 27.2792 3.63402C26.7033 3.29919 26.8137 3.22588 27.4836 3.16951C28.6242 3.07351 29.7987 3.01157 30.9442 3.01157C33.2812 3.01157 35.712 3.52961 37.9815 4.05208C38.6069 4.19604 38.6106 4.07829 38.0001 3.9406C36.7579 3.66039 35.5068 3.38471 34.2515 3.16951C32.45 2.86068 26.9565 2.75145 28.7842 2.75145C29.6529 2.75145 30.5384 2.65404 31.3855 2.46345C31.9289 2.34119 32.4581 2.16703 32.9788 1.97107C33.2228 1.87923 33.9995 1.39975 33.2714 1.9432C31.9055 2.96269 30.55 4.00017 29.2116 5.05543C28.6793 5.47504 27.9006 5.97755 27.5533 6.61619C27.3732 6.94725 27.4874 6.98012 27.7902 6.78341C28.8203 6.11414 29.7425 5.23618 30.698 4.47014C31.836 3.55779 35.2058 0.794052 34.2097 1.85958C32.9224 3.23674 31.2217 4.21337 30.0384 5.69645C29.921 5.84364 29.7962 5.98751 29.7039 6.15168C29.5844 6.36445 29.5176 6.59336 29.8805 6.44896C30.6526 6.14171 31.3421 5.49739 31.9986 5.00898C32.8636 4.36551 33.7491 3.7528 34.6371 3.14164C35.2993 2.6858 37.1995 1.2335 36.6623 1.83171C36.1589 2.3924 35.304 2.87453 34.7207 3.30886C33.5019 4.21633 32.1641 5.09582 31.1068 6.19813C30.9256 6.38698 30.5669 6.91613 30.8281 6.93206C31.4911 6.97249 32.6176 5.88545 33.067 5.54781C33.9955 4.85024 34.8774 4.09577 35.7751 3.35996C36.3219 2.91181 36.992 2.20706 37.6471 1.89674C38.4546 1.51424 36.2819 3.04996 35.594 3.62008C34.282 4.70731 32.9638 5.79589 31.7664 7.01102C31.7264 7.05156 30.6898 7.99129 30.7909 8.23269C30.8144 8.28885 30.9161 8.23345 30.9721 8.20946C31.2852 8.07526 31.8279 7.67068 32.0451 7.5127C34.6527 5.61626 37.1559 3.58226 39.8303 1.77597C40.7924 1.12613 40.1477 1.65367 39.7839 1.93391C38.7935 2.69674 37.7865 3.4344 36.8203 4.2286C35.8234 5.04801 34.8258 5.8886 33.9124 6.80199C33.5707 7.14373 32.6914 8.11959 33.1692 8.04689C33.6723 7.97033 34.3018 7.3321 34.6649 7.05283C35.6268 6.31315 36.5814 5.56574 37.5588 4.8464C38.5416 4.12319 39.5418 3.42616 40.5457 2.73287C40.7652 2.58127 41.9322 1.72877 40.973 2.417C39.3003 3.61717 37.6737 4.95925 36.1885 6.38393C36.0958 6.4729 35.2097 7.21449 35.2734 7.48018C35.3169 7.66131 35.6494 7.43161 35.8169 7.35012C36.3264 7.10226 36.8236 6.78804 37.2987 6.48612C38.5415 5.69637 39.7551 4.86089 40.9916 4.06137C41.9039 3.47149 42.9933 2.57667 44.0341 2.18939C44.5982 1.97949 43.0982 2.94686 42.6174 3.30886C41.5319 4.12604 40.3543 4.94271 39.4959 6.01232C38.8319 6.83963 39.2552 7.03152 40.0068 6.6069C42.0967 5.42618 44.0279 3.9402 46.078 2.68642C47.041 2.09749 46.128 2.62543 46.0362 2.67713C44.7117 3.42323 43.4199 4.22489 42.1529 5.06472C41.2443 5.66692 40.2852 6.26853 39.468 6.99709C38.8258 7.56966 39.8321 7.11168 39.9557 7.05283C42.0275 6.06626 43.9404 4.70428 45.8829 3.49467C46.489 3.11722 48.3029 1.97999 47.7177 2.38913C46.123 3.50403 44.4786 4.5453 42.9147 5.70575C42.4349 6.06173 41.5241 6.76548 42.7985 6.22135C44.1277 5.65383 45.3601 4.88413 46.6029 4.15427C46.9745 3.93602 47.3434 3.71291 47.7177 3.49931C48.4855 3.06125 48.1914 3.25861 47.6295 3.66654C46.1288 4.75594 46.0386 4.77687 44.4243 6.01697C43.9003 6.41956 42.4099 7.53239 41.8881 8.20017C41.0721 9.24439 43.0898 8.69809 43.2677 8.64146C45.0491 8.07451 46.6968 7.00049 48.2519 5.99839C50.1963 4.74543 52.192 3.44064 53.9608 1.9432C54.2082 1.73372 54.5421 1.54929 54.6297 1.23714C54.671 1.08994 54.3211 1.13808 54.1744 1.1814C53.2251 1.4619 51.1906 2.52581 50.4676 2.93725C48.7623 3.90774 46.9822 5.01268 45.6274 6.45825C45.3198 6.78648 44.4352 7.86449 44.6334 8.45566C45.1159 9.89469 53.2731 3.9565 54.1698 3.09519C54.2647 3.00405 55.2282 2.16221 55.0942 1.83171C55.0649 1.75955 54.9489 1.75628 54.8712 1.76204C54.4411 1.7939 53.7512 2.12246 53.4359 2.273C52.0918 2.91474 50.8369 3.72521 49.6408 4.6095C49.0325 5.05925 46.9235 6.31308 46.9095 7.29438C46.8928 8.46404 50.2332 6.73007 50.4955 6.57903C52.1867 5.60531 56.9278 2.22079 55.5169 3.56899C54.1221 4.90174 52.1868 5.62038 50.6906 6.83451C50.4614 7.02047 50.0321 7.56887 50.319 7.63811C51.0664 7.81852 52.1921 7.16755 52.8088 6.86703C54.3118 6.13461 58.5319 3.40988 57.1334 4.32614C55.742 5.23774 54.1564 5.95846 52.8645 7.00638C52.5974 7.2231 52.558 7.39975 52.976 7.27115C53.7426 7.03526 54.4761 6.60993 55.1685 6.21671C56.4653 5.48023 60.1702 2.98862 59.0147 3.93131C57.4562 5.20266 55.6128 6.0991 53.8957 7.12715C53.5738 7.3199 52.6912 7.76155 53.0503 7.87037C53.5525 8.02255 54.5492 7.38127 54.9455 7.1736C56.0008 6.6207 57.0054 5.97475 58.0113 5.33878C58.6243 4.95121 59.331 4.38919 60.018 4.09853C61.3039 3.55449 57.6547 5.59707 56.5667 6.47219C55.7808 7.10431 56.0702 7.25772 56.9058 6.94135C57.4673 6.72874 58.0131 6.46511 58.5409 6.17955C58.8992 5.98567 60.0114 5.52186 60.0645 5.01827C60.108 4.60487 58.0768 4.53591 57.8162 4.48872C56.3473 4.22275 54.8333 3.92724 53.5009 3.22525C52.3336 2.61021 53.8708 2.7144 54.3556 2.77003C55.7667 2.93196 57.1798 3.21481 58.5594 3.55041C59.4616 3.76985 56.7524 3.12281 55.8467 2.91867C54.7634 2.67452 53.675 2.45533 52.5905 2.21726C52.0029 2.08828 50.2616 1.72432 50.8625 1.697C51.4144 1.67192 52.0385 1.82811 52.5765 1.91533C54.139 2.16858 55.6887 2.50671 57.2216 2.90009C57.4045 2.94701 58.601 3.24234 57.3703 3.03015C55.5464 2.7157 53.7251 2.38096 51.9076 2.03145C50.5269 1.76593 46.3603 1.16379 47.7642 1.24178C49.5622 1.34167 51.4242 1.75345 53.1897 2.09184C54.1225 2.27064 55.0891 2.41266 56.0046 2.67248C56.3949 2.78324 55.1919 2.69198 54.7876 2.65854C51.1932 2.36131 47.6127 1.88524 44.0156 1.62733C42.568 1.52354 41.1146 1.43936 39.6631 1.42294C39.2877 1.4187 37.6259 1.25883 37.1965 1.58088C36.8557 1.83653 38.0229 1.80013 38.4461 1.85029C40.5009 2.0939 42.5658 2.2614 44.6241 2.47274C46.3425 2.64918 48.0669 2.80669 49.7802 3.03015C49.7977 3.03244 51.6655 3.29251 50.0867 3.23454C44.8315 3.04158 39.5723 2.40351 34.3305 1.99894C31.7394 1.79896 34.8732 2.08819 35.3942 2.13829C36.9446 2.28737 38.4958 2.43175 40.044 2.6028C41.4879 2.76235 43.3444 2.74198 44.717 3.29957C45.3366 3.55128 43.3834 3.44849 42.7149 3.42964C39.9963 3.35296 37.2811 3.18252 34.5627 3.09519C32.2315 3.02029 29.9036 3.00634 27.5718 3.04874C26.7875 3.063 25.5573 3.08547 24.729 3.13699C24.4277 3.15574 23.6044 3.10264 23.8372 3.29493C24.2486 3.63483 26.0243 3.49076 26.4152 3.50396C28.0354 3.55866 29.6562 3.58315 31.274 3.69441C32.722 3.79398 34.2128 3.90837 35.6311 4.23789C37.5486 4.68336 34.4888 4.78424 34.3862 4.78601C24.9954 4.94843 15.2741 3.61188 6.15318 6.514" stroke="white" stroke-width="1.2" stroke-linecap="round" stroke-linejoin="round"/>
<rect x="1.5" y="23.5947" width="59" height="7" rx="3.5" stroke="white"/>
<path d="M59.3264 26.4856C58.8685 27.6079 58.3826 29.113 57.1106 29.5653C56.636 29.7341 56.2623 29.7865 56.8319 29.3981C57.1228 29.1998 58.787 27.5926 58.9548 27.7909C59.634 28.5936 57.8017 29.5288 57.171 29.6629C56.9379 29.7124 56.1955 29.773 56.1212 29.412C56.0604 29.1165 57.4653 28.9627 57.6355 28.9289C57.7694 28.9024 58.7844 28.7289 58.5738 28.7942C57.7286 29.0565 56.8449 29.1226 55.9679 29.1983C55.4295 29.2449 54.6182 29.2865 55.6614 29.3238C56.4138 29.3506 57.245 29.2096 57.9839 29.3702C58.5031 29.4831 56.9207 29.3607 56.3906 29.3238C56.1998 29.3105 53.8637 28.9991 53.8637 29.124C53.8637 29.302 56.3754 29.4326 56.5997 29.4538C56.6325 29.4569 57.6773 29.536 57.6773 29.5746C57.6773 29.6052 56.9466 29.5285 56.9434 29.5282C56.0427 29.4186 55.1465 29.235 54.2353 29.2448C53.8622 29.2488 54.1311 29.3567 54.3189 29.412C54.838 29.565 55.383 29.6086 55.9168 29.6814C56.2257 29.7236 56.8805 29.7069 57.1524 29.8951C57.3747 30.049 56.6126 29.8623 56.3442 29.8301C55.63 29.7444 54.4758 29.344 53.7708 29.5978C53.2321 29.7918 54.8984 29.7989 55.4663 29.8719C55.7889 29.9134 56.9475 30.0605 55.9447 29.9509C54.9438 29.8414 53.7283 29.4684 52.7303 29.5932C51.8418 29.7042 54.5083 29.8109 55.3919 29.9555C56.8396 30.1924 52.4782 29.5013 51.0116 29.5328C50.5684 29.5423 51.1637 29.715 51.2253 29.7279C51.7597 29.8398 52.3109 29.9002 52.8511 29.9787C53.132 30.0196 53.9803 30.0809 53.6965 30.0809C53.3348 30.0809 52.9672 30.0213 52.6095 29.9787C52.4181 29.9559 49.647 29.6805 49.6552 29.7465C49.6816 29.9572 51.7527 30.1247 51.9871 30.1645C52.4581 30.2446 51.7832 30.167 51.7641 30.1645C51.2262 30.094 50.6856 30.0483 50.1476 29.9787C49.9729 29.9561 47.9019 29.6758 48.6612 29.8951C48.974 29.9855 49.3026 30.0263 49.6227 30.0809C49.8263 30.1157 50.4359 30.224 50.2312 30.197C49.2757 30.0713 48.2884 29.923 47.3234 29.923C46.419 29.923 48.0954 30.1818 48.2756 30.2063C49.6978 30.4003 47.7851 30.1662 47.3652 30.1227C47.2889 30.1148 45.9046 29.992 45.9205 30.0345C46.0012 30.2497 46.8477 30.2366 47.0447 30.2481C47.8211 30.2938 45.4902 30.1386 44.7128 30.1645C42.713 30.2312 40.7069 29.9137 38.7113 29.9137C38.3087 29.9137 37.9062 29.9137 37.5036 29.9137C36.8733 29.9137 36.2612 30.1541 35.6455 30.1645C34.6064 30.1821 33.4266 30.2744 32.4032 30.4572C31.1325 30.6841 29.7386 30.637 28.4549 30.6662C27.0969 30.6971 25.7348 30.6662 24.3765 30.6662" stroke="white" stroke-linecap="round" stroke-linejoin="round"/>
<path d="M58.7412 27.0709C58.8581 26.2443 58.9692 25.6996 58.2395 25.2314C57.683 24.8745 55.8642 24.1195 56.3861 24.5254C56.7849 24.8355 58.5004 24.8076 58.56 25.4033C58.5625 25.4286 58.0265 26.9495 58.3417 26.6343C59.4358 25.5401 56.7863 24.3014 55.9216 24.1073C52.7906 23.4044 49.4556 23.9082 46.283 23.4756" stroke="white" stroke-linecap="round" stroke-linejoin="round"/>
<path d="M3.80817 24.8132C3.99498 24.7174 6.32026 23.7215 5.38751 24.3998C4.62967 24.951 3.53573 24.8465 2.66547 25.0641C1.38703 25.3837 5.27239 24.6763 6.57666 24.4881C6.63173 24.4801 7.47006 24.4113 7.35705 24.437C6.90276 24.5402 6.40595 24.5712 5.94493 24.6274C5.36142 24.6986 4.77499 24.748 4.18907 24.7947C3.56779 24.8441 4.46442 24.7449 4.57462 24.7296C5.21448 24.6408 5.85984 24.5866 6.50234 24.5206C7.19606 24.4493 7.99675 24.5235 8.67626 24.3766C8.9321 24.3213 7.91446 24.4479 7.91446 24.1861C7.91446 24.1318 9.96534 24.0844 10.1162 24.0793C12.1836 24.0091 14.294 24.1443 16.35 24.1443C16.6918 24.1443 17.7137 24.228 17.3719 24.228C16.8578 24.228 16.3435 24.2337 15.8297 24.2094C14.0016 24.1228 12.1781 24.228 10.3485 24.228C8.88458 24.228 7.39174 24.2233 5.93564 24.3952C4.42159 24.5739 2.70668 24.712 1.2998 25.3149" stroke="white" stroke-linecap="round" stroke-linejoin="round"/>
<path d="M3.05544 24.5625C2.84442 25.1661 2.58937 25.6778 2.30293 26.2347C2.21991 26.3962 2.26757 26.3977 2.38654 26.3184" stroke="white" stroke-linecap="round" stroke-linejoin="round"/>
<path d="M2.55384 26.2347C2.58473 26.2035 4.02226 24.7065 3.27848 25.3057C2.75334 25.7287 2.28883 26.2252 2.10326 26.885C1.93639 27.4783 2.57113 25.9789 2.65603 25.8352C2.85481 25.4988 2.80845 25.7305 2.66997 25.9653C2.45428 26.331 2.03116 26.8963 2.18223 27.3495C2.32635 27.7819 3.52194 25.5193 3.68725 25.5193C3.78186 25.5193 3.11962 27.8133 3.20416 27.7118C3.62164 27.2109 4.07615 26.7522 4.43976 26.2068C4.83636 25.6119 3.90086 26.6903 3.78944 26.82C3.44765 27.2178 3.48779 27.2834 3.95202 26.9872C4.80176 26.4451 7.19106 24.6024 6.45574 25.2917C6.03587 25.6854 5.61353 26.0743 5.23872 26.5134C5.12791 26.6432 4.25763 27.7397 4.47692 27.7397" stroke="white" stroke-linecap="round" stroke-linejoin="round"/>
<path d="M6.81798 25.4823C7.17273 25.3404 7.26972 25.2364 6.84585 25.7889C6.51183 26.2242 5.38638 27.5008 5.06212 27.8885C3.63064 29.5999 5.6219 27.6908 5.93541 27.3543C6.57769 26.6648 7.1817 25.9389 7.84455 25.2686C7.89154 25.2211 9.20644 24.0495 8.80609 24.7019C7.95839 26.0834 6.36399 27.1005 5.73567 28.6085C5.63321 28.8543 6.21574 28.3638 6.41385 28.1858C7.70176 27.0281 9.00106 25.8939 10.3854 24.8506C10.7692 24.5613 11.9214 23.7829 11.6675 24.1909C11.1631 25.0016 10.3782 25.6687 9.69795 26.3277C9.09082 26.9159 8.46276 27.5118 7.93745 28.1765C7.86832 28.2639 7.68845 28.4409 7.79345 28.4784C7.83272 28.4924 7.87908 28.4683 7.91423 28.4459C8.16881 28.2834 8.87533 27.6646 8.9826 27.5726C10.1564 26.566 11.2953 25.498 12.5501 24.5904C12.6459 24.5211 13.349 24.0443 13.507 23.968C13.8865 23.7846 13.0553 24.6857 12.7684 24.9946C12.486 25.2985 9.00426 28.5939 9.16841 28.7896C9.38729 29.0506 13.4639 25.8296 13.4884 25.8121C13.6407 25.703 17.8742 22.534 15.4207 25.1571C14.63 26.0025 13.6255 26.9676 12.8102 27.777C12.2556 28.3276 10.9462 29.3327 10.5991 30.146C10.3377 30.7585 11.678 29.3602 12.1692 28.9104C12.9691 28.1777 13.3976 27.7776 14.2595 27.0338C15.2069 26.2161 16.2871 25.0893 17.4367 24.53C17.5658 24.4672 17.3581 24.8157 17.2649 24.9249C16.9453 25.2991 16.4766 25.7642 16.1454 26.0954C14.8295 27.4114 13.475 28.6871 12.2806 30.1181C11.8108 30.6811 11.2639 31.4879 12.2621 30.5594C13.5208 29.3885 14.8206 28.3301 16.2476 27.3589C17.0576 26.8077 18.1402 26.1201 19.0161 25.6402C19.0307 25.6322 19.9795 25.1133 20.2424 25.1293C20.4008 25.1389 20.2014 25.4599 20.103 25.5845C19.5591 26.2732 18.8549 26.866 18.2125 27.4565C17.2823 28.3114 16.3145 29.1315 15.4207 30.0252C15.1015 30.3445 14.4439 31.0897 15.3464 30.5362C16.2625 29.9744 17.11 29.3054 17.9941 28.6967C18.3185 28.4734 22.2326 25.8516 22.3884 26.5971C22.4582 26.931 21.7697 27.5986 21.6777 27.6934C20.9994 28.3924 20.1945 28.9642 19.4434 29.5793C18.9001 30.0242 18.2787 30.5423 17.7619 31.0193C17.5486 31.2161 17.3399 31.418 17.1394 31.6278C16.9694 31.8057 16.4794 32.1915 16.7214 32.2363C17.0969 32.3058 17.3873 31.8578 17.6922 31.6278C18.3368 31.1416 19.1208 30.4963 19.7361 29.9927C21.2887 28.7218 22.8108 27.3766 24.4973 26.2813C24.7505 26.1168 25.1559 25.6343 25.3149 25.8911C25.4616 26.128 25.0097 26.3624 24.8132 26.56C23.7978 27.5807 22.5734 28.3931 21.478 29.3238C21.1451 29.6066 20.8708 29.8478 20.5629 30.146C20.469 30.2369 20.194 30.3785 20.3074 30.4433C20.543 30.5779 22.4077 29.0188 22.5556 28.9197C24.028 27.9331 25.5616 27.0218 27.1357 26.2069C27.4285 26.0554 29.4401 25.1167 28.153 26.1605C26.8902 27.1847 25.5216 28.1032 24.358 29.2448C23.6267 29.9623 24.7909 29.3715 24.9897 29.2541C26.6741 28.2595 28.2756 27.0839 29.8578 25.9375C31.901 24.4571 29.66 25.7246 29.1053 26.0815C28.2922 26.6047 27.4507 27.1806 26.7688 27.8699C26.7253 27.9138 25.7977 29.1625 26.4854 28.8268C27.6532 28.2567 28.6937 27.2603 29.7277 26.4903C30.7717 25.7129 31.8256 24.8491 32.97 24.2188C35.0397 23.079 28.6845 26.6813 27.4981 28.7246C27.146 29.3309 27.6359 29.4381 28.1066 29.2077C29.4507 28.5496 30.6319 27.3607 31.8366 26.4856C32.602 25.9296 34.9828 24.3927 34.1499 24.8413C33.353 25.2703 32.6057 25.8659 31.8691 26.3881C30.9311 27.0531 29.9257 27.7305 29.2353 28.6688C28.7806 29.287 29.1207 29.1241 29.5744 28.8268C30.6407 28.1282 31.687 27.3981 32.747 26.69C33.8669 25.9419 37.312 23.8537 36.0915 24.4232C35.381 24.7548 34.6931 25.3516 34.057 25.7982C33.0813 26.4831 32.0525 27.1575 31.2188 28.0185C31.1344 28.1057 30.9025 28.339 30.8379 28.483C30.7681 28.6387 30.9667 28.5392 31.0005 28.5248C32.1118 28.0519 33.1483 27.174 34.1592 26.5321C34.656 26.2166 35.9299 25.4132 36.4631 25.1014C37.6857 24.3866 36.7883 25.1084 36.4306 25.394C35.7531 25.9351 35.0608 26.4447 34.3264 26.9037" stroke="white" stroke-linecap="round" stroke-linejoin="round"/>
<path d="M47.8715 24.228C46.8815 23.7064 46.1825 23.6046 45.0797 23.6845C44.3364 23.7384 43.6005 23.8099 42.8547 23.8099C42.2468 23.8099 44.0691 23.7485 44.6756 23.7077C45.1911 23.6731 45.7008 23.6427 46.2178 23.6427C46.3965 23.6427 46.8775 23.6816 46.7473 23.5591C46.5198 23.3449 45.7222 23.4647 45.4467 23.429C45.2854 23.4081 43.821 23.2246 44.5084 23.2246C45.1279 23.2246 46.9661 23.4172 46.3664 23.2618C45.7422 23.1 44.6698 22.8604 44.0439 23.1039C43.6882 23.2422 44.5918 23.4047 44.7313 23.3733C44.9188 23.3311 44.1468 23.2246 44.2761 23.2246C44.4015 23.2246 44.9879 23.1214 44.9079 23.0992C44.3321 22.9393 43.5653 23.1491 42.9801 23.2246C38.3273 23.825 33.646 23.6016 28.9751 23.8935" stroke="white" stroke-linecap="round" stroke-linejoin="round"/>
<path d="M33.8247 25.4822C30.4346 25.6261 27.0911 26.0127 23.7263 26.4298C22.7873 26.5462 24.6996 26.0905 24.869 26.035C26.2411 25.5855 27.592 24.8366 28.9938 24.5068C30.2252 24.217 26.6158 25.371 25.4171 25.7749C24.5021 26.0831 21.7993 27.1106 22.7322 26.8618C23.2438 26.7254 23.75 26.3968 24.2001 26.1418C25.2612 25.5406 26.3078 24.9119 27.3587 24.2931C27.4798 24.2218 28.2201 23.8316 27.4749 24.0748C26.6714 24.3369 25.892 24.6732 25.1151 25.0038C23.6212 25.6395 21.9767 26.1608 20.614 27.0616C20.029 27.4483 21.7941 26.2952 22.3234 25.8353C23.1127 25.1494 25.4772 23.1865 24.5113 23.587C24.0262 23.7882 23.5432 24.1966 23.1131 24.4789C22.0386 25.1842 20.9498 25.8706 19.8894 26.5971C19.511 26.8563 19.0858 27.1257 18.7746 27.4703C18.6379 27.6217 19.8053 26.8429 19.8383 26.82C21.3735 25.7545 22.8763 24.6363 24.4416 23.6149C25.6342 22.8367 22.2347 25.4157 21.1111 26.2905C20.9368 26.4261 19.842 27.0921 19.8708 27.4703C19.9219 28.1419 22.7329 26.759 22.7415 26.755C24.1018 26.1273 25.4217 25.4148 26.7967 24.818C26.9648 24.745 29.0225 23.7159 28.6083 24.8319C28.0997 26.2023 26.3975 27.0095 25.4264 28.0185C25.4125 28.0329 24.7991 28.6503 25.3335 28.5201C27.0436 28.1037 28.7155 27.1813 30.3409 26.5227C31.0232 26.2463 31.7168 25.9347 32.4312 25.7424C32.5308 25.7155 34.0083 25.3354 33.625 25.8492C32.7134 27.0712 31.0368 27.6405 29.9879 28.7524C29.2586 29.5254 30.6079 28.7856 30.7822 28.692C32.8413 27.5871 35.0504 26.1907 37.3736 25.7424C37.4579 25.7261 37.6266 25.6891 37.6291 25.7749C37.6406 26.1664 37.0591 26.3146 36.7465 26.5506C35.8609 27.2193 34.9444 27.84 34.0245 28.4598C33.4521 28.8454 32.8476 29.2223 32.329 29.6814C32.2733 29.7308 32.1923 29.9153 32.264 29.8951C32.4614 29.8395 33.0231 29.5481 33.1559 29.477C34.8607 28.564 36.4286 27.4089 38.1075 26.4484C38.5628 26.188 39.9091 25.4226 39.5382 25.7935C38.8144 26.5173 37.7487 27.005 36.9045 27.5679C36.2841 27.9815 35.6652 28.4047 35.1068 28.901C35.0618 28.941 34.5028 29.4516 34.9767 29.2169C36.4762 28.4745 37.8452 27.4847 39.3571 26.7504C40.1206 26.3795 40.983 25.9107 41.8329 25.7609C42.0827 25.717 42.0869 25.8228 41.9444 25.9653C41.7932 26.1166 41.2648 26.46 41.1269 26.5506C39.8632 27.3809 38.3763 28.135 37.3597 29.2819C37.3248 29.3213 37.12 29.5834 37.3643 29.4863C38.2117 29.1496 39.0278 28.4892 39.7984 28.0278C41.0132 27.3003 42.2312 26.5542 43.5005 25.9235C44.8929 25.2317 43.0984 26.4765 43.036 26.5181C41.8204 27.3285 40.5739 28.0864 39.3989 28.9568C38.4655 29.6482 40.8043 28.329 40.8296 28.3158C42.5892 27.3977 47.8458 24.6252 46.1808 25.7052C44.4797 26.8086 42.488 27.677 40.9782 29.0404C40.831 29.1733 40.5874 29.6346 40.7831 29.6025C41.5541 29.4759 42.4145 28.8161 43.0407 28.418C44.1333 27.7233 45.1823 26.9629 46.2458 26.2255C46.8713 25.7917 47.333 25.4747 47.9599 25.0688C48.1785 24.9272 48.7733 24.4479 48.6287 24.6647C48.4366 24.9528 47.7406 25.2417 47.4628 25.4079C46.6566 25.8902 45.8444 26.3525 45.0752 26.8944C44.4791 27.3143 43.8878 27.7561 43.3426 28.2414C43.1156 28.4436 42.4722 28.8978 42.7713 28.9521C43.1032 29.0125 43.3666 28.6347 43.6631 28.4737C44.6321 27.9476 45.6094 27.4361 46.5849 26.9222C48.1905 26.0764 53.0158 23.5558 51.3926 24.3674C49.431 25.3482 47.4533 26.5597 45.6837 27.8466C45.4006 28.0525 44.5075 28.649 44.4621 29.1147C44.4354 29.3877 46.174 28.3849 46.1808 28.3808C48.5005 26.986 50.8462 25.6578 53.2135 24.3442C53.4163 24.2316 54.0085 23.869 53.7988 23.9679C52.8547 24.4132 51.9539 24.9933 51.0674 25.538C49.9055 26.2519 48.7324 26.9713 47.644 27.7955C47.1977 28.1334 46.0076 28.9006 46.5431 29.0636C46.7205 29.1176 47.0132 28.875 47.1377 28.7896C47.9984 28.1987 48.8612 27.6232 49.7482 27.0709C51.2791 26.1175 53.1417 25.2103 54.4305 23.9215C55.5864 22.7656 51.561 25.505 50.236 26.4624C49.5544 26.9548 48.8741 27.4669 48.3361 28.1207C48.139 28.3602 47.6283 29.0395 47.9273 28.9568C48.2156 28.877 48.5785 28.6069 48.8192 28.469C50.2692 27.6388 51.7173 26.8052 53.167 25.9746C54.0663 25.4594 55.0181 24.9763 55.8798 24.3953C56.2409 24.1518 55.0628 24.7054 54.6813 24.9155C53.1533 25.7575 50.9913 26.6897 49.9387 28.1578C49.4054 28.9016 51.8281 27.498 51.9128 27.4518C52.7523 26.9943 53.5994 26.5517 54.4444 26.1047C54.8996 25.8639 56.1076 25.2151 54.6535 25.9421C52.9985 26.7696 51.1877 27.5776 49.79 28.8174C49.69 28.9062 49.4672 29.189 49.5996 29.1705C50.9286 28.9844 52.377 28.0434 53.5572 27.4889C54.9824 26.8194 56.4046 26.1443 57.8354 25.4869C59.374 24.7799 57.2629 25.8021 57.0875 25.891C55.5422 26.6745 53.447 27.3293 52.3774 28.771C52.1682 29.0528 52.3803 29.0537 52.591 28.9939C53.504 28.735 54.3741 28.2783 55.2434 27.907C56.0381 27.5676 56.8494 27.1978 57.6914 26.9873C57.8304 26.9525 58.2123 26.9252 58.1187 27.0337C57.9785 27.1963 57.1265 27.6922 57.0782 27.7212C56.7394 27.9245 53.2879 29.596 53.5015 30.2063C53.6049 30.5018 55.4837 29.6032 55.7311 29.4956" stroke="white" stroke-linecap="round" stroke-linejoin="round"/>
</svg>
