<svg width="276" height="37" viewBox="0 0 276 37" fill="none" xmlns="http://www.w3.org/2000/svg">
<rect x="-0.0104269" y="-0.465559" width="21.1352" height="2.48112" rx="1.24056" transform="matrix(-0.647798 -0.761812 0.613042 -0.79005 273.38 29.1509)" stroke="#2D2D2D" stroke-width="0.6"/>
<path d="M260.223 12.8642C260.596 12.6491 261.065 12.3252 261.47 12.5386C261.622 12.6182 261.722 12.7054 261.496 12.6664C261.381 12.6465 260.611 12.6762 260.619 12.5696C260.649 12.1379 261.3 12.359 261.479 12.4922C261.546 12.5415 261.734 12.7279 261.666 12.8583C261.611 12.965 261.245 12.6241 261.197 12.5874C261.159 12.5585 260.88 12.3312 260.945 12.3694C261.205 12.5229 261.428 12.7466 261.652 12.9656C261.789 13.1 261.989 13.3113 261.753 13.012C261.583 12.7962 261.355 12.6097 261.219 12.357C261.124 12.1793 261.467 12.6533 261.582 12.8108C261.624 12.8675 262.099 13.6069 262.128 13.5689C262.17 13.5148 261.612 12.7819 261.564 12.7135C261.557 12.7035 261.33 12.3911 261.34 12.3794C261.347 12.3701 261.5 12.595 261.501 12.596C261.686 12.8779 261.853 13.1811 262.069 13.4296C262.158 13.5314 262.12 13.4243 262.089 13.3557C262.004 13.1659 261.886 13.0022 261.778 12.8327C261.715 12.7347 261.558 12.559 261.538 12.4267C261.523 12.3186 261.657 12.5857 261.713 12.6695C261.86 12.8927 262.036 13.3331 262.262 13.4504C262.434 13.54 262.045 13.078 261.929 12.8991C261.863 12.7974 261.626 12.4329 261.835 12.743C262.044 13.0526 262.241 13.5015 262.505 13.7389C262.74 13.9503 262.139 13.182 261.966 12.8942C261.682 12.4226 262.542 13.8365 262.894 14.2316C263 14.351 262.901 14.1342 262.89 14.1133C262.791 13.9318 262.676 13.7613 262.568 13.5883C262.511 13.4984 262.327 13.2456 262.393 13.3239C262.478 13.4237 262.55 13.5433 262.624 13.655C262.664 13.7147 263.249 14.5633 263.263 14.5409C263.306 14.4695 262.86 13.847 262.814 13.7702C262.723 13.6159 262.863 13.8257 262.866 13.8317C262.976 14.0016 263.092 14.1647 263.202 14.3344C263.238 14.3895 263.657 15.0463 263.531 14.77C263.479 14.6562 263.411 14.5531 263.349 14.4481C263.31 14.3814 263.192 14.1802 263.234 14.2449C263.428 14.5468 263.625 14.8644 263.852 15.1307C264.064 15.3803 263.731 14.8389 263.695 14.7817C263.407 14.3302 263.801 14.9293 263.889 15.0584C263.905 15.0819 264.201 15.5013 264.207 15.4839C264.239 15.3962 264.037 15.1666 263.994 15.1087C263.822 14.8805 264.333 15.571 264.521 15.7777C265.006 16.3093 265.402 16.9595 265.87 17.5102C265.965 17.6213 266.059 17.7324 266.154 17.8435C266.302 18.0174 266.502 18.1132 266.649 18.2799C266.897 18.5614 267.196 18.8589 267.479 19.0857C267.831 19.3673 268.147 19.7663 268.455 20.1117C268.781 20.4771 269.093 20.8623 269.412 21.2372" stroke="#2D2D2D" stroke-linecap="round" stroke-linejoin="round"/>
<path d="M272.858 28.6945C272.792 28.6721 272.011 28.3335 272.39 28.3845C272.698 28.4259 272.93 28.7596 273.185 28.9335C273.561 29.1891 272.482 28.3321 272.132 28.0294C272.117 28.0167 271.904 27.8062 271.936 27.8296C272.067 27.9236 272.191 28.0512 272.313 28.1614C272.466 28.3007 272.616 28.4475 272.764 28.595C272.922 28.7514 272.688 28.5342 272.658 28.5084C272.487 28.3589 272.323 28.1973 272.157 28.04C271.977 27.8703 271.807 27.6267 271.613 27.4839C271.539 27.4302 271.808 27.6725 271.746 27.7521C271.733 27.7687 271.241 27.2171 271.204 27.177C270.703 26.6279 270.239 26.0043 269.757 25.4369C269.677 25.3426 269.457 25.0351 269.537 25.1294C269.657 25.2713 269.78 25.4115 269.894 25.5607C270.303 26.0915 270.756 26.5628 271.185 27.0677C271.529 27.4717 271.878 27.8851 272.26 28.2346C272.658 28.598 273.093 29.0293 273.565 29.2341" stroke="#2D2D2D" stroke-linecap="round" stroke-linejoin="round"/>
<path d="M274.012 28.5499C274.204 28.4244 274.385 28.3391 274.583 28.2487C274.641 28.2225 274.63 28.2089 274.583 28.2002" stroke="#2D2D2D" stroke-linecap="round" stroke-linejoin="round"/>
<path d="M273.488 28.6079C273.474 28.6089 272.783 28.6677 273.099 28.6907C273.322 28.7069 273.548 28.684 273.747 28.5344C273.927 28.3999 273.424 28.681 273.37 28.7013C273.244 28.7488 273.309 28.6911 273.397 28.6579C273.534 28.6061 273.767 28.5509 273.839 28.3713C273.907 28.1999 273.092 28.5584 273.053 28.5128C273.031 28.4867 273.728 27.9715 273.684 27.979C273.468 28.0162 273.253 28.0304 273.039 28.096C272.805 28.1675 273.28 28.0976 273.336 28.0889C273.511 28.0621 273.517 28.0311 273.338 27.9931C273.01 27.9236 272.015 27.8249 272.35 27.8181C272.541 27.8142 272.732 27.8124 272.924 27.7822C272.981 27.7733 273.444 27.6798 273.392 27.6193" stroke="#2D2D2D" stroke-linecap="round" stroke-linejoin="round"/>
<path d="M272.308 27.6603C272.191 27.6056 272.144 27.6105 272.373 27.5593C272.555 27.5191 273.12 27.4412 273.288 27.4127C274.028 27.287 273.11 27.3184 272.957 27.3343C272.643 27.3668 272.33 27.421 272.016 27.442C271.994 27.4435 271.409 27.4372 271.657 27.3491C272.182 27.1627 272.796 27.2932 273.3 27.0078C273.382 26.9612 273.129 26.9497 273.041 26.9492C272.465 26.9461 271.893 26.9326 271.321 26.868C271.163 26.8501 270.709 26.769 270.865 26.7149C271.174 26.6075 271.516 26.6211 271.831 26.6083C272.113 26.5969 272.401 26.5889 272.681 26.5316C272.718 26.5241 272.802 26.5199 272.786 26.4795C272.78 26.4644 272.764 26.4589 272.75 26.456C272.652 26.4352 272.34 26.4285 272.293 26.4269C271.78 26.4093 271.261 26.4199 270.752 26.3498C270.713 26.3445 270.436 26.2955 270.38 26.2752C270.248 26.2262 270.656 26.1814 270.796 26.1666C270.934 26.152 272.529 26.1102 272.537 26.0053C272.547 25.8655 270.83 25.7206 270.82 25.7192C270.759 25.7103 269.017 25.5062 270.212 25.3852C270.597 25.3462 271.061 25.3297 271.443 25.3084C271.703 25.294 272.248 25.3494 272.521 25.1978C272.727 25.0836 272.083 25.1391 271.861 25.1405C271.501 25.1426 271.306 25.1462 270.928 25.1346C270.512 25.122 269.993 25.1667 269.591 25.0196C269.546 25.0031 269.677 24.9544 269.725 24.9469C269.888 24.9213 270.108 24.9091 270.264 24.8997C270.883 24.8624 271.502 24.848 272.12 24.7422C272.363 24.7006 272.682 24.606 272.229 24.6131C271.657 24.622 271.102 24.5853 270.538 24.487C270.218 24.4312 269.801 24.3417 269.482 24.246C269.477 24.2444 269.132 24.1404 269.074 24.063C269.039 24.0164 269.162 23.9737 269.214 23.963C269.504 23.9035 269.81 23.9175 270.1 23.9151C270.52 23.9117 270.941 23.9292 271.361 23.9039C271.512 23.8949 271.842 23.8496 271.5 23.769C271.152 23.6871 270.795 23.6568 270.444 23.598C270.315 23.5764 268.778 23.294 268.917 23.0242C268.979 22.9033 269.299 22.8902 269.343 22.8867C269.667 22.8612 269.991 22.9094 270.312 22.9295C270.545 22.944 270.813 22.9579 271.047 22.9554C271.143 22.9543 271.24 22.9505 271.337 22.942C271.418 22.9348 271.625 22.9526 271.578 22.8722C271.507 22.7474 271.333 22.8036 271.207 22.7894C270.941 22.7595 270.604 22.7395 270.341 22.7229C269.677 22.6812 269.002 22.6704 268.348 22.5383C268.249 22.5184 268.04 22.5534 268.064 22.4314C268.085 22.3188 268.246 22.3722 268.339 22.3663C268.819 22.336 269.298 22.4266 269.774 22.4457C269.919 22.4515 270.041 22.4538 270.183 22.4481C270.227 22.4463 270.325 22.4792 270.313 22.4281C270.29 22.3222 269.484 22.282 269.426 22.2713C268.848 22.1652 268.273 22.0192 267.711 21.8328C267.606 21.7981 266.913 21.5286 267.461 21.5662C267.999 21.603 268.537 21.7012 269.08 21.675C269.421 21.6585 269.008 21.517 268.934 21.4978C268.304 21.3356 267.65 21.2514 267.008 21.1636C266.179 21.0501 267.005 21.2829 267.219 21.3274C267.533 21.3926 267.867 21.4496 268.19 21.428C268.21 21.4267 268.723 21.3027 268.482 21.2151C268.073 21.0663 267.594 21.0823 267.169 21.0313C266.741 20.9797 266.29 20.9517 265.872 20.8276C265.118 20.6033 267.459 21.261 268.22 20.9667C268.446 20.8794 268.356 20.7116 268.192 20.6518C267.721 20.4811 267.163 20.5169 266.674 20.4507C266.363 20.4086 265.441 20.2192 265.742 20.3126C266.031 20.402 266.347 20.427 266.643 20.4714C267.02 20.5279 267.416 20.5992 267.799 20.5042C268.052 20.4417 267.934 20.3974 267.757 20.3626C267.342 20.2809 266.924 20.2143 266.508 20.1372C266.069 20.0558 264.767 19.7405 265.188 19.904C265.433 19.9992 265.735 20.0075 265.99 20.0471C266.381 20.1079 266.781 20.1867 267.18 20.1547C267.221 20.1515 267.33 20.1445 267.379 20.1185C267.433 20.0904 267.363 20.0659 267.351 20.0609C266.979 19.8981 266.528 19.8792 266.139 19.7956C265.948 19.7545 265.46 19.6474 265.261 19.5951C264.805 19.4752 265.186 19.5032 265.338 19.515C265.624 19.5374 265.907 19.5734 266.188 19.6364" stroke="#2D2D2D" stroke-width="0.5" stroke-linecap="round" stroke-linejoin="round"/>
<path d="M262.379 16.7123C262.488 17.1442 262.628 17.3681 262.906 17.6481C263.093 17.8369 263.283 18.0182 263.458 18.224C263.6 18.3918 263.158 17.9076 263.006 17.7526C262.877 17.6209 262.75 17.4895 262.629 17.3468C262.587 17.2975 262.483 17.1529 262.485 17.2261C262.488 17.354 262.703 17.5377 262.759 17.6246C262.792 17.6755 263.093 18.1354 262.931 17.9457C262.786 17.7748 262.4 17.2089 262.504 17.4217C262.612 17.6432 262.807 18.012 263.012 18.1107C263.128 18.1667 262.954 17.8679 262.914 17.839C262.86 17.8001 263.016 18.0455 262.986 18.0098C262.956 17.9752 262.794 17.8448 262.808 17.8737C262.905 18.0812 263.135 18.229 263.29 18.3675C264.524 19.4688 265.569 20.8287 266.734 22.0289" stroke="#2D2D2D" stroke-width="0.5" stroke-linecap="round" stroke-linejoin="round"/>
<path d="M265.972 20.207C266.801 21.0988 267.677 21.9039 268.565 22.7055C268.813 22.9292 268.257 22.5402 268.204 22.5103C267.776 22.2684 267.282 22.1235 266.875 21.837C266.518 21.5853 267.637 22.2303 268.014 22.4382C268.301 22.5969 269.178 23.0302 268.901 22.8484C268.748 22.7487 268.552 22.709 268.386 22.6624C267.995 22.5525 267.601 22.455 267.208 22.3532C267.163 22.3415 266.897 22.256 267.13 22.3876C267.38 22.5296 267.642 22.6423 267.903 22.7562C268.403 22.975 268.912 23.2702 269.445 23.3722C269.673 23.416 268.987 23.2797 268.754 23.2736C268.407 23.2645 267.389 23.2092 267.71 23.3539C267.871 23.4266 268.081 23.4356 268.249 23.4684C268.667 23.5503 269.085 23.6419 269.505 23.7135C269.655 23.739 269.819 23.7744 269.973 23.7554C270.041 23.7471 269.583 23.6619 269.57 23.6598C268.958 23.5603 268.341 23.4858 267.733 23.3646C267.269 23.2723 268.676 23.4257 269.146 23.4696C269.219 23.4764 269.633 23.5759 269.716 23.4529C269.862 23.2345 268.876 22.8795 268.873 22.8783C268.406 22.6939 267.928 22.5465 267.464 22.3486C267.408 22.3244 266.682 22.0697 267.042 21.8445C267.485 21.5678 268.075 21.792 268.541 21.753C268.548 21.7524 268.838 21.7338 268.682 21.6259C268.182 21.2807 267.572 21.1 267.035 20.8518C266.81 20.7476 266.573 20.651 266.36 20.5124C266.331 20.4931 265.894 20.201 266.105 20.1505C266.608 20.0302 267.136 20.3197 267.644 20.2708C267.998 20.2368 267.507 20.0896 267.444 20.07C266.7 19.8379 265.851 19.6532 265.2 19.1485C265.177 19.1302 265.129 19.0949 265.148 19.0681C265.238 18.9458 265.409 19.0611 265.538 19.0756C265.904 19.1165 266.266 19.1806 266.628 19.2459C266.853 19.2865 267.084 19.3387 267.314 19.342C267.339 19.3424 267.402 19.3086 267.38 19.295C267.321 19.2574 267.12 19.1911 267.072 19.1761C266.456 18.9834 265.816 18.9022 265.195 18.7311C265.027 18.6847 264.53 18.5461 264.705 18.5356C265.045 18.5151 265.411 18.6607 265.742 18.7225C265.985 18.7678 266.23 18.8098 266.478 18.8129C266.498 18.8132 266.75 18.8121 266.583 18.7527C266.056 18.5648 265.501 18.4882 264.973 18.2944C264.706 18.1965 264.393 18.1012 264.158 17.9122C264.089 17.8566 264.113 17.8233 264.18 17.8192C264.252 17.8149 264.457 17.8563 264.511 17.8668C265.003 17.9629 265.53 18.1437 266.039 18.0753C266.057 18.0729 266.167 18.0497 266.087 18.0118C265.808 17.8805 265.461 17.8562 265.171 17.7839C264.714 17.67 264.252 17.5609 263.805 17.4025C263.315 17.2288 264.03 17.3452 264.055 17.3498C264.531 17.4387 265.003 17.552 265.484 17.6115C265.866 17.6587 265.006 17.4147 264.997 17.4117C264.367 17.2055 262.479 16.5984 263.125 16.7293C263.785 16.863 264.457 17.1484 265.133 17.1502C265.199 17.1504 265.365 17.0772 265.312 17.033C265.101 16.8588 264.743 16.8221 264.502 16.7704C264.082 16.6803 263.656 16.6221 263.233 16.553C262.983 16.5124 262.8 16.4814 262.557 16.4319C262.472 16.4147 262.22 16.3964 262.305 16.3703C262.418 16.3357 262.649 16.4398 262.754 16.4659C263.057 16.5417 263.357 16.6251 263.665 16.6725C263.904 16.7093 264.147 16.738 264.39 16.7408C264.491 16.742 264.749 16.7813 264.692 16.6822C264.628 16.5723 264.477 16.6145 264.369 16.5817C264.018 16.4744 263.668 16.3603 263.317 16.2474C262.741 16.0617 261.014 15.4971 261.586 15.698C262.278 15.9409 263.028 16.1181 263.747 16.2149C263.862 16.2303 264.213 16.2953 264.333 16.1661C264.404 16.0904 263.759 15.9158 263.757 15.9152C262.883 15.6994 262.019 15.4562 261.153 15.2026C261.079 15.1809 260.854 15.1278 260.927 15.1556C261.254 15.2806 261.602 15.3527 261.939 15.4316C262.38 15.535 262.825 15.6399 263.275 15.6894C263.46 15.7098 263.92 15.8048 263.833 15.6074C263.804 15.542 263.678 15.5351 263.629 15.5267C263.287 15.4689 262.949 15.4059 262.61 15.3292C262.026 15.1968 261.375 14.9589 260.768 14.9954C260.224 15.0281 261.815 15.3054 262.352 15.3798C262.628 15.418 262.909 15.45 263.189 15.3995C263.292 15.381 263.573 15.3152 263.483 15.2579C263.396 15.2026 263.247 15.1847 263.158 15.1602C262.622 15.0126 262.085 14.8667 261.549 14.7193C261.216 14.6279 260.879 14.5123 260.54 14.4512C260.397 14.4257 260.805 14.5824 260.944 14.6237C261.501 14.7892 262.229 15.1022 262.822 14.9459C263.123 14.8668 262.223 14.6253 262.192 14.616C261.887 14.5235 261.584 14.4244 261.28 14.3272C261.116 14.2749 260.68 14.1389 261.193 14.319C261.776 14.5239 262.392 14.7778 263.013 14.7863C263.057 14.7869 263.176 14.7623 263.141 14.7314C262.785 14.4212 262.223 14.3078 261.815 14.1509C261.323 13.9613 260.829 13.7742 260.338 13.5794C259.81 13.3699 260.547 13.6415 260.609 13.6628C261.157 13.8509 261.803 14.2299 262.395 14.0864C262.51 14.0583 262.461 13.9995 262.397 13.9596C262.122 13.7864 261.81 13.6853 261.518 13.5583C261.251 13.4423 260.974 13.3309 260.726 13.1626C260.686 13.1348 260.59 13.0377 260.637 13.0305C260.708 13.0198 261.026 13.104 261.044 13.1085C261.171 13.1402 262.376 13.5841 262.47 13.3394C262.515 13.2209 261.862 12.9759 261.779 12.9403" stroke="#2D2D2D" stroke-width="0.3" stroke-linecap="round" stroke-linejoin="round"/>
<rect x="-0.378255" y="-0.0233626" width="22.4063" height="2.57215" rx="1.28608" transform="matrix(-0.678218 0.73486 -0.582632 -0.812736 261.803 13.9763)" stroke="#2D2D2D" stroke-width="0.6"/>
<path d="M261.231 13.7144C261.23 13.7969 261.25 14.5206 261.266 14.3904C261.324 13.9106 261.353 13.4273 261.331 12.942C261.326 12.8289 261.331 12.1658 261.217 12.1034C261.205 12.0966 261.136 13.1312 261.134 13.1771C261.117 13.6879 261.072 14.2079 261.079 14.7192C261.079 14.748 261.115 14.6759 261.119 14.6477C261.161 14.4008 261.174 14.1436 261.188 13.8926C261.212 13.4417 261.195 12.9921 261.13 12.5458C261.076 12.1722 261.066 12.3318 261.052 12.6043C261.023 13.1352 260.976 13.664 260.914 14.1905C260.834 14.8573 260.858 13.9899 260.864 13.809C260.876 13.3966 260.886 12.9803 260.85 12.5685C260.8 12.0072 260.703 12.7537 260.683 12.9158C260.61 13.5197 260.602 14.1516 260.476 14.7444C260.433 14.9484 260.417 14.6576 260.415 14.6409C260.378 14.1843 260.373 13.7249 260.356 13.2671C260.343 12.9407 260.339 12.5973 260.272 12.2773C260.219 12.0195 260.171 12.3331 260.162 12.3981C260.032 13.2857 260.054 14.2055 259.88 15.0842C259.746 15.7651 259.701 14.3335 259.699 14.2528C259.688 13.7874 259.681 13.3216 259.658 12.8566C259.648 12.6321 259.678 12.0085 259.568 12.1902C259.493 12.3147 259.518 12.7838 259.513 12.8915C259.491 13.3694 259.466 13.8464 259.422 14.3223C259.378 14.8095 259.334 15.3077 259.239 15.7852C259.101 16.4819 259.107 15.3911 259.107 15.3465C259.116 14.5534 259.16 13.7578 259.137 12.9643C259.135 12.9114 259.133 12.8584 259.128 12.8058C259.127 12.7937 259.111 12.8232 259.11 12.8354C259.081 13.3355 259.074 13.8368 259.038 14.3367C259.005 14.7872 258.96 15.2367 258.892 15.6814C258.873 15.8028 258.854 15.9243 258.83 16.0441C258.81 16.1384 258.774 16.3913 258.729 16.3093C258.623 16.1148 258.7 15.4612 258.701 15.2803C258.705 14.6155 258.727 13.941 258.662 13.2785C258.569 12.3428 258.466 13.8706 258.46 14.0089C258.433 14.6331 258.419 15.2581 258.381 15.8815C258.361 16.2124 258.329 16.6338 258.284 16.9668C258.263 17.1242 258.271 17.3093 258.183 17.4292C258.092 17.554 258.141 17.099 258.142 16.9329C258.144 16.6148 258.156 16.2961 258.142 15.9779C258.138 15.8943 258.047 14.9443 257.98 15.4186C257.888 16.0768 257.83 16.7437 257.699 17.3934C257.664 17.5678 257.591 18.0522 257.526 17.8894C257.408 17.5954 257.533 16.9992 257.55 16.6941C257.565 16.3925 257.596 16.0786 257.551 15.7773C257.531 15.638 257.443 15.4002 257.354 15.6489C257.071 16.4402 257.131 17.4596 257.008 18.2988C256.99 18.4204 256.97 18.5416 256.946 18.6615C256.928 18.7508 256.911 18.9744 256.853 18.9133C256.774 18.8303 256.825 18.2834 256.825 18.2138C256.828 17.7368 256.836 17.2597 256.823 16.7826C256.819 16.6336 256.852 15.9101 256.689 15.8002C256.572 15.7205 256.621 16.1128 256.616 16.2732C256.599 16.7866 256.589 17.2982 256.555 17.8106C256.516 18.3916 256.479 18.9958 256.36 19.5627C256.342 19.6474 256.332 19.7435 256.282 19.8072C256.263 19.831 256.225 19.7749 256.219 19.743C256.177 19.5318 256.179 18.8831 256.179 18.7257C256.183 17.7869 256.349 16.7127 256.133 15.7896C256.125 15.7535 256.118 15.7045 256.089 15.6903C256.01 15.652 256.03 15.8817 256.023 15.9822C255.977 16.6416 256.015 17.3102 255.993 17.9714C255.973 18.5754 255.938 19.1809 255.873 19.7802C255.863 19.8759 255.851 19.9714 255.834 20.0659C255.802 20.2544 255.805 20.0865 255.807 20.02C255.84 18.8196 256.03 17.5881 255.893 16.3874C255.802 15.5924 255.648 16.6316 255.624 16.8392C255.595 17.0899 255.331 19.8944 255.17 19.8523C255.066 19.8251 255.238 18.4283 255.235 18.2335C255.233 18.1147 255.254 17.8409 255.162 17.8869C255.05 17.9429 255.034 18.134 254.987 18.2673C254.912 18.4795 254.732 19.0405 254.666 19.2473C254.66 19.2676 254.453 19.8037 254.477 19.9083C254.491 19.9712 254.556 19.8193 254.597 19.7771C254.749 19.6208 254.925 19.5622 255.119 19.5173C255.354 19.4629 255.342 19.5176 255.175 19.7246C254.891 20.0769 254.59 20.4278 254.282 20.7506C253.654 21.4091 252.877 21.9271 252.141 22.3982C251.939 22.528 251.966 22.567 252.163 22.4393C252.564 22.1796 252.966 21.916 253.355 21.6316C253.914 21.2235 255.417 19.7108 254.925 20.2258C254.692 20.4705 254.477 20.7514 254.295 21.0515C254.178 21.2441 254.077 21.4493 253.984 21.6592C253.94 21.7575 253.846 22.1309 253.912 21.7506C254.036 21.0372 254.152 20.3209 254.26 19.6037C254.303 19.3185 254.392 18.9371 254.333 18.6334C254.302 18.476 254.264 18.4976 254.23 18.6463C254.112 19.1523 254.074 19.695 254 20.2111C253.912 20.8258 253.666 22.666 253.679 22.0419C253.697 21.2354 253.921 20.4415 253.885 19.6301C253.881 19.5496 253.88 19.468 253.866 19.3892C253.847 19.2869 253.81 19.1943 253.747 19.3431C253.613 19.6597 253.582 20.0616 253.522 20.404C253.443 20.8551 253.351 21.302 253.258 21.7492C253.189 22.0827 253.025 23.0862 253.027 22.742C253.028 22.4195 253.143 22.0232 253.196 21.7189C253.307 21.083 253.456 20.4226 253.477 19.7695C253.481 19.6576 253.451 19.3859 253.377 19.4544C253.189 19.6282 253.146 20.2959 253.106 20.5314C253.023 21.0178 252.966 21.5094 252.9 21.9995C252.86 22.298 252.848 22.7139 252.746 22.9985C252.621 23.3493 252.838 22.2422 252.887 21.8646C252.98 21.1446 253.074 20.4223 253.106 19.6934C253.107 19.669 253.161 19.0741 253.076 19.0248C253.057 19.0133 253.043 19.0598 253.033 19.0833C252.981 19.2148 252.932 19.4981 252.911 19.6102C252.663 20.9561 252.476 22.317 252.188 23.6526C252.085 24.1332 252.132 23.7815 252.163 23.5886C252.247 23.0638 252.341 22.5423 252.412 22.0141C252.484 21.4691 252.551 20.9171 252.579 20.3654C252.589 20.159 252.592 19.5967 252.481 19.7548C252.364 19.9212 252.347 20.3043 252.316 20.4966C252.235 21.006 252.156 21.5159 252.065 22.0231C251.974 22.5331 251.871 23.0395 251.767 23.5458C251.744 23.6565 251.634 24.2601 251.728 23.768C251.891 22.9099 252.008 22.0191 252.067 21.1415C252.07 21.0867 252.131 20.598 252.051 20.5304C251.996 20.4842 251.961 20.6519 251.936 20.7254C251.858 20.9488 251.799 21.1902 251.744 21.4214C251.598 22.0261 251.471 22.6373 251.33 23.2433C251.225 23.6905 251.146 24.2858 250.959 24.7039C250.857 24.9305 251.03 24.1961 251.072 23.944C251.169 23.3747 251.291 22.7797 251.266 22.1932C251.247 21.7395 251.087 21.7969 250.987 22.1455C250.707 23.1149 250.542 24.1379 250.291 25.1197C250.172 25.5808 250.292 25.1534 250.304 25.1109C250.482 24.4972 250.638 23.8749 250.778 23.2472C250.878 22.7971 250.993 22.333 251.038 21.868C251.074 21.5025 250.913 21.9336 250.894 21.9874C250.572 22.8891 250.383 23.867 250.15 24.8042C250.077 25.0966 249.861 25.9742 249.921 25.6775C250.083 24.8688 250.277 24.0699 250.42 23.2553C250.464 23.0054 250.541 22.522 250.328 23.0564C250.106 23.6138 249.959 24.2091 249.799 24.7945C249.751 24.9696 249.705 25.1454 249.655 25.3197C249.554 25.6772 249.586 25.5307 249.639 25.241C249.782 24.467 249.802 24.4349 249.94 23.5804C249.984 23.303 250.119 22.5244 250.1 22.1622C250.07 21.5957 249.658 22.3403 249.624 22.4087C249.28 23.0933 249.094 23.9037 248.915 24.6649C248.691 25.6165 248.466 26.5994 248.348 27.5803C248.332 27.7175 248.286 27.8711 248.337 27.9963C248.361 28.0554 248.444 27.9413 248.473 27.886C248.661 27.5281 248.954 26.612 249.05 26.2757C249.277 25.4824 249.492 24.6248 249.511 23.7772C249.515 23.5847 249.495 22.988 249.301 22.8534C248.827 22.5256 248.052 26.7377 248.017 27.268C248.013 27.3241 247.955 27.8669 248.07 27.9356C248.095 27.9506 248.127 27.919 248.147 27.8952C248.255 27.7638 248.362 27.4635 248.411 27.3261C248.619 26.7406 248.763 26.1258 248.873 25.5038C248.929 25.1875 249.197 24.1891 248.966 23.869C248.691 23.4873 248.207 24.9873 248.173 25.1099C247.951 25.9003 247.484 28.3269 247.541 27.4949C247.598 26.6724 247.947 25.8954 248.059 25.0826C248.076 24.9581 248.061 24.6604 247.967 24.7189C247.723 24.8714 247.576 25.3983 247.482 25.6689C247.253 26.3285 246.769 28.3957 246.926 27.7063C247.082 27.0205 247.337 26.3415 247.434 25.6397C247.454 25.4946 247.422 25.4266 247.34 25.5858C247.191 25.8779 247.095 26.2216 247.003 26.5434C246.83 27.1462 246.429 28.9931 246.514 28.3637C246.63 27.5148 246.911 26.7065 247.127 25.8914C247.168 25.7386 247.3 25.3475 247.177 25.4137C247.006 25.5061 246.891 25.9936 246.834 26.1722C246.682 26.6477 246.567 27.139 246.448 27.6274C246.376 27.925 246.32 28.3053 246.205 28.5925C245.989 29.1302 246.482 27.4436 246.566 26.8551C246.626 26.4299 246.511 26.462 246.362 26.7994C246.262 27.0261 246.178 27.2649 246.105 27.5056C246.055 27.6691 245.866 28.132 245.972 28.3092C246.059 28.4547 246.622 27.9046 246.703 27.8463C247.162 27.5182 247.64 27.1868 248.166 27.0376C248.627 26.9069 248.188 27.3065 248.045 27.4251C247.626 27.7705 247.179 28.0775 246.728 28.3582C246.433 28.5416 247.316 27.9868 247.608 27.7974C247.958 27.5708 248.303 27.3348 248.651 27.1059C248.84 26.9819 249.395 26.6085 249.24 26.7866C249.098 26.9502 248.893 27.0758 248.727 27.1993C248.247 27.5579 247.749 27.8856 247.243 28.1908C247.182 28.2272 246.79 28.4691 247.172 28.1907C247.737 27.7782 248.307 27.3728 248.879 26.9734C249.314 26.6699 250.578 25.6899 250.182 26.0603C249.675 26.5348 249.076 26.9267 248.52 27.3151C248.227 27.5204 247.933 27.747 247.624 27.9212C247.493 27.9955 247.838 27.6859 247.955 27.5828C248.993 26.6657 250.069 25.8103 251.098 24.8798C251.512 24.5054 251.923 24.123 252.317 23.7193C252.419 23.6149 252.904 23.1981 252.943 22.9734C252.973 22.7949 252.668 23.1356 252.543 23.2386C251.932 23.7391 251.336 24.267 250.733 24.7788C250.228 25.2062 249.727 25.6413 249.213 26.052C249.208 26.0562 248.643 26.4987 249.082 26.0726C250.541 24.654 252.108 23.3777 253.614 22.0311C254.358 21.3654 253.446 22.1552 253.294 22.2859C252.842 22.6747 252.39 23.0653 251.933 23.4464C251.507 23.8018 251.012 24.3315 250.51 24.5386C250.283 24.632 250.833 24.1148 251.017 23.9325C251.767 23.1912 252.538 22.481 253.289 21.7432C253.934 21.1105 254.563 20.459 255.18 19.7883C255.388 19.5628 255.713 19.2089 255.924 18.9589C256 18.8679 256.234 18.6531 256.126 18.6567C255.934 18.6631 255.491 19.2099 255.383 19.3157C254.934 19.7546 254.492 20.2034 254.031 20.6234C253.617 20.9994 253.189 21.3826 252.729 21.676C252.107 22.0727 252.906 21.1781 252.933 21.1486C255.419 18.4502 258.353 16.1417 260.112 12.6364" stroke="#2D2D2D" stroke-width="0.3" stroke-linecap="round" stroke-linejoin="round"/>
<path d="M15.1903 6.45832C15.3995 7.61244 16.1368 16.9386 17.9725 17.3564C18.4645 17.4683 18.2597 13.8335 18.202 13.5083C17.0954 7.27489 10.7789 0.245629 5.32314 6.34082C0.0531114 12.2285 -0.492915 23.5628 4.20449 29.8701C9.81007 37.3968 18.3805 32.9513 25 29.7232" stroke="#2D2D2D" stroke-width="2" stroke-linecap="round" stroke-linejoin="round"/>
<path d="M174.19 6.45832C174.4 7.61244 175.137 16.9386 176.973 17.3564C177.464 17.4683 177.26 13.8335 177.202 13.5083C176.095 7.27489 169.779 0.245629 164.323 6.34082C159.053 12.2285 158.507 23.5628 163.204 29.8701C168.81 37.3968 177.38 32.9513 184 29.7232" stroke="#2D2D2D" stroke-width="2" stroke-linecap="round" stroke-linejoin="round"/>
<path d="M50.1902 28.6712C50.3849 27.6713 50.1633 21.2842 49.1615 19.5001C48.5904 18.4832 46.6699 17.3768 45.6616 17C41.1616 17 39.4273 18.8953 38.3066 21.9998C36.9413 25.7821 40.3287 33.4882 44.6398 34.4154C48.2771 35.1977 50.0055 31.0001 50.3563 27.5001" stroke="#2D2D2D" stroke-width="2" stroke-linecap="round" stroke-linejoin="round"/>
<path d="M72 25.4713C72.2333 24.2613 90.5752 22.7895 89.3748 20.6305C88.6905 19.3999 85.3583 17.456 84.1501 17C78.7579 17 77.9042 17.4785 76.5613 21.2355C74.9253 25.8128 76.4203 31.6101 81.5861 32.7322C85.9445 33.6789 90.5797 32.1274 91 27.8918" stroke="#2D2D2D" stroke-width="2" stroke-linecap="round" stroke-linejoin="round"/>
<path d="M132.34 3C131.075 14.2444 133.425 23.7385 137.957 33.8412C138.279 34.5593 136.691 32.6608 136.509 31.7503" stroke="#2D2D2D" stroke-width="2" stroke-linecap="round" stroke-linejoin="round"/>
<path d="M28 2.08789C29.3834 11.6035 30.6363 21.1458 31.9491 30.6801C32.1733 32.3085 32.3734 33.4496 32.2478 34.9912" stroke="#2D2D2D" stroke-width="2" stroke-linecap="round" stroke-linejoin="round"/>
<path d="M139 2.08789C140.383 11.6035 141.636 21.1458 142.949 30.6801C143.173 32.3085 143.373 33.4496 143.248 34.9912" stroke="#2D2D2D" stroke-width="2" stroke-linecap="round" stroke-linejoin="round"/>
<path d="M197.313 21.2993C195.865 17.0061 194.839 11.8843 190.239 16.2531C187.797 18.5728 187.19 21.7176 187.154 24.9967C187.128 27.4299 186.815 34.8095 190.624 34.3227C192.893 34.0327 195.44 31.546 196.839 29.8753C199.076 27.2033 200.609 24.1654 201.013 20.6707C201.188 19.1593 200.909 14.606 200.734 16.1174C200.136 21.2836 200.845 29.0025 203.144 33.5995" stroke="#2D2D2D" stroke-width="2" stroke-linecap="round" stroke-linejoin="round"/>
<path d="M67.6416 18C70.6841 14.6775 52.077 16.8833 58.2721 21.5001C63.2722 26.0001 62.3365 24.2591 67.6416 28.0001C70.7221 30.1725 72.2737 33.0001 67.6416 33.9491C63.7737 36.0001 55.1155 30.5001 58.2737 30.5001" stroke="#2D2D2D" stroke-width="2" stroke-linecap="round" stroke-linejoin="round"/>
<path d="M216.642 18C219.684 14.6775 201.077 16.8833 207.272 21.5001C212.272 26.0001 211.337 24.2591 216.642 28.0001C219.722 30.1725 221.274 33.0001 216.642 33.9491C212.774 36.0001 204.115 30.5001 207.274 30.5001" stroke="#2D2D2D" stroke-width="2" stroke-linecap="round" stroke-linejoin="round"/>
<path d="M224 3C225.46 13.5574 227.996 24.1124 228.955 34.7298C229.206 37.5088 228.355 34.9849 227.547 34.1433" stroke="#2D2D2D" stroke-width="2" stroke-linecap="round" stroke-linejoin="round"/>
<path d="M221 26.0001C226.902 24.3026 227.402 23.1535 233.392 21.7873C234.751 21.4773 235.5 21.3901 236.579 21.9296" stroke="#2D2D2D" stroke-width="2" stroke-linecap="round" stroke-linejoin="round"/>
<path d="M109 33.429C110.447 24.4408 112.29 15.5622 115.044 6.90756C115.73 4.75416 116.542 2.51744 118.352 5.29477C121.878 10.7068 122.305 18.5116 123.883 24.708C124.189 25.9107 127.249 34.6044 125.422 33.9666" stroke="#2D2D2D" stroke-width="2" stroke-linecap="round" stroke-linejoin="round"/>
<path d="M110 27C116.326 25.6178 122.656 24.2928 129 23" stroke="#2D2D2D" stroke-width="2" stroke-linecap="round" stroke-linejoin="round"/>
</svg>
