<svg width="50" height="50" viewBox="0 0 50 50" fill="none" xmlns="http://www.w3.org/2000/svg">
<rect x="6.60889" y="0.707107" width="59" height="7" rx="3.5" transform="rotate(45 6.60889 0.707107)" stroke="#2D2D2D"/>
<path d="M8.65963 4.29117C8.85213 4.28115 10.5361 4.1264 10.2297 4.10067C9.1 4.00581 7.96755 3.99192 6.83996 4.12038C6.57713 4.15032 5.02983 4.22697 4.90534 4.55066C4.89172 4.58606 7.31728 4.63478 7.42462 4.63277C8.61902 4.61045 9.84008 4.66388 11.0311 4.57365C11.0981 4.56857 10.9236 4.48112 10.857 4.47183C10.2735 4.3904 9.67124 4.38982 9.08334 4.38643C8.02734 4.38032 6.98205 4.49091 5.95312 4.73131C5.09203 4.9325 5.46618 4.93896 6.10421 4.94153C7.34767 4.94652 8.58959 5.00442 9.82895 5.10575C11.3988 5.23411 9.3715 5.28643 8.94868 5.29626C7.98456 5.31868 7.01192 5.34927 6.05823 5.50647C4.75852 5.72071 6.51746 5.88846 6.89909 5.92033C8.32094 6.0391 9.79628 5.97589 11.2019 6.24222C11.6858 6.33391 11.0107 6.42008 10.972 6.42616C9.91409 6.5924 8.84355 6.66849 7.77936 6.7809C7.02059 6.86105 6.22061 6.92038 5.48671 7.14877C4.89546 7.33277 5.63557 7.42037 5.7889 7.43782C7.88292 7.67617 10.0237 7.48731 12.1052 7.84839C13.7181 8.12819 10.3879 8.44959 10.2001 8.4659C9.11679 8.55995 8.0319 8.64547 6.95164 8.77136C6.43027 8.83213 4.97027 8.83329 5.41445 9.11296C5.71878 9.30458 6.80805 9.16966 7.06003 9.1688C8.17879 9.16498 9.29581 9.16967 10.4136 9.22464C11.5582 9.28093 12.728 9.33276 13.8591 9.5301C15.5097 9.81807 12.9649 9.95227 12.8606 9.9571C11.0096 10.0429 9.14587 10.0288 7.29981 10.2034C7.17678 10.2151 7.05363 10.228 6.93193 10.2494C6.90382 10.2544 6.97564 10.2951 7.00419 10.2954C8.17594 10.3076 9.34625 10.2569 10.5187 10.2888C11.5753 10.3177 12.6322 10.3815 13.6818 10.5089C13.9683 10.5437 14.2551 10.5788 14.5391 10.6304C14.7627 10.6711 15.3592 10.7385 15.1763 10.8735C14.7424 11.1937 13.2039 11.0716 12.7818 11.0936C11.2309 11.1744 9.65382 11.2049 8.12096 11.4779C5.95611 11.8634 9.53809 11.9403 9.86179 11.9377C11.3224 11.9262 12.7826 11.8786 14.2434 11.8983C15.0187 11.9088 16.0075 11.9393 16.7923 12.0165C17.1633 12.0531 17.5935 12.0066 17.8893 12.2333C18.1974 12.4694 17.1273 12.3973 16.7397 12.4173C15.9976 12.4556 15.252 12.4649 14.5128 12.5487C14.3184 12.5707 12.12 12.9548 13.2384 13.0742C14.7906 13.24 16.3566 13.3077 17.8959 13.58C18.3092 13.6531 19.4525 13.7913 19.0849 13.9939C18.4212 14.3596 17.0076 14.0951 16.293 14.0924C15.5866 14.0898 14.8491 14.0491 14.1548 14.2139C13.8337 14.2902 13.2955 14.5662 13.892 14.7789C15.7898 15.4555 18.1561 15.1483 20.136 15.3734C20.4228 15.406 20.7091 15.4446 20.9933 15.4949C21.2048 15.5324 21.7295 15.5488 21.5977 15.7183C21.4187 15.9484 20.1342 15.8839 19.9718 15.8924C18.8588 15.9501 17.7447 15.9925 16.6346 16.096C16.2878 16.1284 14.5944 16.1363 14.3683 16.6018C14.2044 16.9392 15.11 16.7473 15.485 16.7398C16.6853 16.7157 17.8804 16.6728 19.0817 16.6971C20.4437 16.7246 21.8596 16.7441 23.2038 16.996C23.4046 17.0336 23.6308 17.0501 23.7885 17.1799C23.8476 17.2287 23.7239 17.3417 23.6505 17.3639C23.1659 17.51 21.6527 17.5934 21.2856 17.6135C19.0957 17.7334 16.5596 17.4199 14.4471 18.1456C14.3643 18.174 14.2514 18.2005 14.2237 18.2836C14.1492 18.5072 14.6811 18.4192 14.9168 18.4248C16.4631 18.4618 18.0152 18.2649 19.5612 18.2343C20.9733 18.2064 22.3919 18.2205 23.8016 18.3164C24.0267 18.3317 24.2516 18.3535 24.475 18.3854C24.9208 18.4491 24.5285 18.4634 24.3731 18.4675C21.5677 18.5423 18.6604 18.1838 15.8857 18.7303C14.0487 19.092 16.5009 19.3756 16.9894 19.4135C17.5795 19.4592 24.1689 19.8064 24.1005 20.2576C24.0563 20.5497 20.7671 20.2649 20.3134 20.3003C20.0365 20.3219 19.3943 20.3015 19.5185 20.5499C19.6701 20.8531 20.1186 20.8708 20.4382 20.9835C20.9471 21.163 22.2889 21.5857 22.7834 21.739C22.8318 21.7539 24.1203 22.2524 24.36 22.1725C24.504 22.1245 24.1378 21.9656 24.0315 21.8572C23.6388 21.4566 23.4695 20.9771 23.3286 20.4448C23.1582 19.8008 23.2881 19.8271 23.8016 20.2609C24.6761 20.9996 25.5504 21.7863 26.3603 22.5962C28.0128 24.2488 29.3654 26.3339 30.6007 28.3081C30.9411 28.8521 31.027 28.7715 30.6927 28.2425C30.0124 27.1659 29.3228 26.0864 28.5873 25.0465C27.5318 23.5543 23.7245 19.5925 25.0169 20.885C25.6312 21.4992 26.3262 22.0565 27.0599 22.5207C27.5306 22.8185 28.028 23.0695 28.5347 23.2991C28.7722 23.4067 29.6605 23.6169 28.7614 23.4864C27.0746 23.2414 25.3825 23.0165 23.6899 22.8163C23.0169 22.7367 22.1109 22.5413 21.4137 22.7473C21.0523 22.8541 21.1098 22.9581 21.463 23.0331C22.6647 23.2883 23.9376 23.3195 25.1549 23.4535C26.6047 23.6131 30.9417 24.0416 29.484 24.0907C27.5999 24.1542 25.7068 23.6423 23.8213 23.8542C23.6342 23.8753 23.4442 23.8888 23.2629 23.9396C23.028 24.0056 22.8188 24.1202 23.1776 24.2747C23.9408 24.6034 24.8839 24.6353 25.6936 24.7542C26.7602 24.9109 27.8196 25.1037 28.8796 25.2995C29.6702 25.4454 32.0408 25.7621 31.238 25.8053C30.4855 25.8457 29.5401 25.5822 28.8205 25.4768C27.317 25.2567 25.7491 24.9326 24.222 24.9644C23.9604 24.9699 23.3326 25.0904 23.506 25.2863C23.9463 25.7838 25.5115 25.8117 26.068 25.8907C27.2178 26.0539 28.3749 26.1441 29.53 26.2586C30.2335 26.3283 31.2056 26.3038 31.8883 26.5476C32.7298 26.8481 30.1075 26.3977 29.2179 26.3144C27.5214 26.1555 25.8196 25.9931 24.1137 26.0056C24.0568 26.0061 22.6593 25.9376 22.56 26.1797C22.537 26.2361 22.648 26.2688 22.7046 26.2914C23.0209 26.4179 23.6907 26.5156 23.956 26.5575C27.1408 27.0603 30.3492 27.3921 33.5175 28.006C34.6573 28.2268 33.8284 28.1439 33.3729 28.0848C32.1333 27.9239 30.8996 27.7335 29.6548 27.6118C28.3704 27.4863 27.0707 27.3753 25.7789 27.3753C25.2957 27.3753 23.9839 27.4436 24.3731 27.7301C24.783 28.0317 25.6794 28.0255 26.1337 28.0848C27.3369 28.2419 28.5404 28.3884 29.7402 28.5709C30.9464 28.7544 32.1466 28.9688 33.3467 29.1884C33.6091 29.2364 35.0371 29.4588 33.8722 29.2672C31.8408 28.9331 29.7416 28.7319 27.684 28.6892C27.5555 28.6865 26.4046 28.5843 26.2618 28.8173C26.1644 28.9761 26.562 29.0488 26.7381 29.1096C27.2736 29.2946 27.8473 29.424 28.3968 29.5464C29.834 29.8668 31.2829 30.1341 32.7226 30.4431C33.7848 30.6711 35.1879 30.8087 36.1977 31.2709C36.745 31.5213 35.0003 31.1447 34.4043 31.0606C33.0589 30.8709 31.6488 30.6157 30.2854 30.765C29.2309 30.8805 29.3946 31.3156 30.2263 31.5468C32.539 32.1896 34.9553 32.5044 37.2915 33.0675C38.3888 33.332 37.3699 33.0597 37.2685 33.0314C35.8043 32.6224 34.3241 32.2759 32.8343 31.9738C31.766 31.7571 30.6624 31.5043 29.5694 31.4417C28.7104 31.3924 29.7458 31.7802 29.8748 31.826C32.0374 32.5933 34.3531 32.9829 36.582 33.5011C37.2775 33.6628 39.3642 34.1413 38.6611 34.0168C36.7451 33.6775 34.8461 33.251 32.9197 32.9657C32.3287 32.8782 31.1871 32.7318 32.473 33.2482C33.8141 33.7868 35.2298 34.1139 36.6247 34.4766C37.0418 34.5851 37.4604 34.6881 37.8761 34.8018C38.7287 35.0349 38.3812 34.9665 37.6955 34.8576C35.864 34.5668 35.7855 34.5179 33.7671 34.2533C33.1118 34.1674 31.2711 33.9004 30.4299 34.0036C29.1146 34.165 30.9276 35.2054 31.0934 35.2912C32.754 36.1499 34.6785 36.5556 36.4867 36.9466C38.7476 37.4356 41.0814 37.9241 43.391 38.116C43.714 38.1428 44.0806 38.2485 44.3632 38.0897C44.4965 38.0148 44.215 37.8014 44.0807 37.7284C43.2111 37.2554 41.0202 36.5691 40.218 36.3488C38.3259 35.8292 36.2859 35.3518 34.3058 35.416C33.8562 35.4306 32.4683 35.5673 32.1905 36.1255C31.5141 37.4842 41.4811 39.0533 42.7242 39.0783C42.8557 39.081 44.1323 39.167 44.2712 38.8386C44.3016 38.7669 44.2218 38.6825 44.1628 38.6316C43.8361 38.35 43.116 38.0945 42.7866 37.978C41.3824 37.4814 39.922 37.1671 38.4509 36.9466C37.7027 36.8345 35.3249 36.2298 34.6211 36.9138C33.7822 37.7291 37.3703 38.865 37.6626 38.9437C39.547 39.451 45.2927 40.4102 43.3417 40.3659C41.4131 40.3221 39.5364 39.4617 37.6199 39.2623C37.3264 39.2317 36.635 39.3159 36.7889 39.5677C37.1899 40.2238 38.4461 40.5595 39.0947 40.783C40.6754 41.3279 45.5861 42.3853 43.9493 42.0443C42.3209 41.7051 40.69 41.0935 39.0356 40.921C38.6934 40.8853 38.5407 40.9825 38.9272 41.1871C39.6361 41.5624 40.4555 41.7803 41.2231 41.9918C42.6608 42.388 47.0425 43.2459 45.5588 43.0954C43.5578 42.8924 41.6204 42.2228 39.6794 41.7356C39.3154 41.6442 38.3791 41.3325 38.556 41.6633C38.8035 42.126 39.9617 42.3773 40.3888 42.5107C41.526 42.8659 42.6931 43.1196 43.8541 43.3812C44.5616 43.5406 45.4587 43.6429 46.15 43.9231C47.444 44.4477 43.4193 43.3116 42.0311 43.1611C41.0285 43.0524 41.1246 43.3655 41.9392 43.7326C42.4865 43.9793 43.0589 44.1789 43.634 44.3501C44.0245 44.4664 45.1389 44.9249 45.5325 44.6063C45.8556 44.3448 44.4681 42.8598 44.3172 42.6421C43.4666 41.4154 42.605 40.1358 42.1592 38.6973C41.7687 37.437 42.782 38.5977 43.0855 38.9798C43.9688 40.0921 44.768 41.2913 45.5062 42.5042C45.989 43.2973 44.5308 40.9241 44.0347 40.1393C43.4414 39.2006 42.8268 38.276 42.2282 37.3408C41.904 36.8341 40.93 35.3454 41.3742 35.751C41.7822 36.1236 42.1131 36.6753 42.4319 37.1174C43.3576 38.4014 44.2143 39.7362 45.0201 41.0984C45.1162 41.2608 45.7534 42.3157 45.0333 41.2954C43.966 39.7834 42.9147 38.2588 41.8768 36.7266C41.0882 35.5625 38.5678 32.1905 39.5053 33.2383C40.7061 34.5804 41.7315 36.1881 42.7406 37.6758C43.2738 38.4619 43.8568 39.2458 44.3205 40.0769C44.5182 40.4312 43.732 39.516 43.4698 39.2064C41.1383 36.4546 38.9432 33.5862 36.582 30.8603C35.6318 29.7633 34.6636 28.676 33.6488 27.6381C33.3864 27.3697 32.3244 26.0816 31.793 26.0056C31.3712 25.9454 32.2224 26.745 32.4861 27.0797C33.7668 28.7049 35.1085 30.2835 36.4145 31.8884C37.5048 33.2282 38.6128 34.5589 39.6662 35.9284C39.677 35.9424 40.8138 37.447 39.7385 36.2897C36.1589 32.4373 32.8913 28.2673 29.4708 24.2747C27.7801 22.3011 29.7915 24.7215 30.1245 25.1254C31.1154 26.3271 32.1101 27.526 33.0839 28.7417C33.9921 29.8756 35.3193 31.1739 35.8955 32.5387C36.1556 33.1548 34.8472 31.701 34.3879 31.215C32.5197 29.2384 30.7203 27.198 28.8599 25.2141C27.2644 23.5127 25.6282 21.8567 23.9494 20.2379C23.3847 19.6934 22.4989 18.8394 21.8768 18.2901C21.6505 18.0903 21.1059 17.4706 21.1345 17.7712C21.1851 18.3025 22.5426 19.4562 22.8097 19.7419C23.9166 20.9262 25.0454 22.0896 26.1107 23.3123C27.0642 24.4066 28.0374 25.5416 28.8073 26.7775C29.8482 28.4484 27.6133 26.3561 27.5395 26.2848C20.7843 19.7593 14.8554 11.9403 6.35384 7.54292" stroke="#2D2D2D" stroke-width="1.2" stroke-linecap="round" stroke-linejoin="round"/>
<g style="mix-blend-mode:luminosity">
<rect x="48.1886" y="6.55981" width="59" height="7" rx="3.5" transform="rotate(135 48.1886 6.55981)" stroke="#2D2D2D"/>
<path d="M5.25496 45.405C4.7851 44.2876 4.06438 42.8798 4.64402 41.6605C4.86029 41.2056 5.0875 40.9043 4.95934 41.5817C4.89389 41.9276 4.8536 44.2408 4.59475 44.2192C3.54688 44.1319 4.18116 42.1749 4.53234 41.6342C4.66213 41.4344 5.14427 40.8666 5.45203 41.0693C5.70403 41.2352 4.81932 42.3374 4.72285 42.4817C4.64699 42.5951 4.05195 43.4355 4.15462 43.2404C4.56681 42.4572 5.14497 41.7857 5.71151 41.112C6.05934 40.6984 6.60361 40.0952 5.83961 40.8065C5.28855 41.3196 4.80054 42.0071 4.16447 42.416C3.71753 42.7033 4.92299 41.6708 5.32393 41.3222C5.46826 41.1967 7.34031 39.7649 7.25199 39.6766C7.12615 39.5508 5.25773 41.2345 5.08415 41.378C5.05873 41.3991 4.264 42.0819 4.23673 42.0547C4.21511 42.033 4.78598 41.5706 4.78854 41.5685C5.50286 41.0091 6.26642 40.5052 6.90382 39.854C7.16484 39.5873 6.89837 39.7012 6.72645 39.7949C6.25122 40.0538 5.83497 40.4083 5.40604 40.7343C5.15788 40.9229 4.70662 41.3977 4.38125 41.4569C4.11532 41.5052 4.78622 41.0983 4.99876 40.9313C5.56438 40.4869 6.66361 39.9539 6.98265 39.2759C7.22641 38.7579 6.04311 39.9311 5.58998 40.281C5.33249 40.4798 4.40917 41.195 5.19583 40.5635C5.98099 39.9331 7.10417 39.3374 7.72169 38.5434C8.27141 37.8366 6.31049 39.6467 5.58342 40.1693C4.39227 41.0254 7.96497 38.4301 8.97968 37.3708C9.28632 37.0507 8.74326 37.3496 8.69065 37.384C8.23361 37.6828 7.80115 38.0298 7.36367 38.3562C7.13617 38.526 6.49289 39.0825 6.6936 38.8817C6.94937 38.626 7.25141 38.4082 7.53446 38.1854C7.68593 38.0662 9.84017 36.3015 9.7877 36.2606C9.62006 36.1303 8.03707 37.4764 7.84321 37.6139C7.45354 37.8903 7.98559 37.468 8.00088 37.4562C8.43111 37.1258 8.84566 36.7758 9.2753 36.4446C9.41484 36.337 11.0775 35.0708 10.3855 35.4526C10.1004 35.6099 9.83915 35.8135 9.5742 36.0012C9.40569 36.1205 8.89798 36.475 9.0618 36.3493C9.82638 35.7626 10.6294 35.1694 11.3117 34.487C11.9513 33.8474 10.5828 34.8499 10.438 34.9599C9.29528 35.8284 10.8133 34.6415 11.141 34.3753C11.2005 34.3269 12.2662 33.435 12.2249 33.4162C12.0156 33.3211 11.4264 33.9289 11.2789 34.06C10.6976 34.5767 12.4555 33.0382 12.9869 32.4702C14.3538 31.009 15.9968 29.815 17.408 28.4039C17.6926 28.1192 17.9773 27.8346 18.262 27.5499C18.7076 27.1042 18.9705 26.5014 19.3984 26.0587C20.1208 25.3114 20.8897 24.412 21.4841 23.5591C22.2223 22.5001 23.2412 21.5477 24.1283 20.6194C25.0666 19.6373 26.0516 18.696 27.0121 17.7355" stroke="#2D2D2D" stroke-linecap="round" stroke-linejoin="round"/>
<path d="M5.25488 44.5773C5.75664 45.2445 6.06332 45.7082 6.91032 45.5233C7.55621 45.3822 9.37614 44.63 8.72013 44.712C8.21884 44.7746 7.02549 46.0075 6.56215 45.6284C6.54244 45.6123 5.84611 44.1578 5.84611 44.6036C5.84611 46.151 8.59547 45.1533 9.34421 44.6791C12.0552 42.9622 14.0571 40.2478 16.6064 38.3103" stroke="#2D2D2D" stroke-linecap="round" stroke-linejoin="round"/>
<path d="M45.695 7.33026C45.6307 7.53013 44.6907 9.87857 44.8706 8.73935C45.0167 7.81374 45.8641 7.11409 46.3256 6.34488C47.0036 5.21487 44.7565 8.46243 43.9673 9.5178C43.934 9.56236 43.3899 10.2038 43.4516 10.1057C43.6998 9.71151 44.0292 9.3383 44.3155 8.97256C44.6778 8.50963 45.0575 8.06004 45.4388 7.61273C45.8431 7.13843 45.2793 7.84259 45.2122 7.93134C44.8226 8.44663 44.4045 8.94126 43.9969 9.44226C43.5567 9.98318 42.9381 10.4969 42.5615 11.0813C42.4197 11.3013 43.0498 10.4922 43.2348 10.6773C43.2733 10.7157 41.8566 12.1994 41.7535 12.3097C40.3413 13.8212 38.7534 15.2179 37.2996 16.6717C37.0579 16.9133 36.2762 17.5768 36.5178 17.3351C36.8814 16.9716 37.241 16.6039 37.6215 16.2578C38.9753 15.0263 40.1904 13.6625 41.4841 12.3688C42.5193 11.3337 43.5782 10.2814 44.4863 9.13022C45.4305 7.93323 46.5455 6.623 47.1139 5.20184" stroke="#2D2D2D" stroke-linecap="round" stroke-linejoin="round"/>
<path d="M46.4045 6.97517C46.1269 6.39912 45.9454 5.85699 45.7541 5.26061C45.6987 5.08775 45.6639 5.1204 45.6359 5.2606" stroke="#2D2D2D" stroke-linecap="round" stroke-linejoin="round"/>
<path d="M45.5767 5.43806C45.5769 5.48196 45.6189 7.55697 45.7212 6.60738C45.7934 5.93693 45.7708 5.25739 45.4355 4.65961C45.1339 4.1221 45.7453 5.63118 45.7869 5.7928C45.8842 6.17121 45.7532 5.97465 45.6851 5.71068C45.579 5.29955 45.4784 4.60061 45.0512 4.38699C44.6435 4.18318 45.398 6.62844 45.2811 6.74533C45.2142 6.81223 44.0604 4.72189 44.0723 4.8534C44.1314 5.50285 44.1343 6.14854 44.2628 6.79131C44.4031 7.49242 44.302 6.0684 44.2891 5.8979C44.2495 5.37492 44.1748 5.35695 44.0559 5.89462C43.8384 6.87879 43.4519 9.8713 43.4844 8.86389C43.503 8.28866 43.5265 7.71497 43.4811 7.13948C43.4677 6.96934 43.3077 5.57861 43.1527 5.73368" stroke="#2D2D2D" stroke-linecap="round" stroke-linejoin="round"/>
<path d="M43.0935 8.98538C42.943 9.33657 42.9479 9.47869 42.857 8.7883C42.7853 8.24427 42.6785 6.5458 42.6336 6.04238C42.4357 3.81999 42.3776 6.57798 42.3939 7.03761C42.4272 7.97928 42.5134 8.91969 42.5187 9.86236C42.519 9.92919 42.4177 11.6874 42.2395 10.943C41.8621 9.36675 42.2703 7.52015 41.6482 6.00953C41.5468 5.76322 41.4818 6.52198 41.4676 6.78798C41.3755 8.51727 41.2588 10.238 41.0176 11.9547C40.9507 12.4306 40.6865 13.7957 40.5775 13.3276C40.3609 12.3978 40.4442 11.3711 40.4592 10.424C40.4726 9.57883 40.4954 8.71333 40.3968 7.8719C40.3838 7.76115 40.3859 7.50884 40.2851 7.55658C40.2475 7.57443 40.2317 7.62426 40.2227 7.66497C40.1576 7.95986 40.0956 8.89702 40.0848 9.03793C39.9665 10.5797 39.9164 12.1403 39.6709 13.6692C39.6522 13.7859 39.4922 14.6203 39.4344 14.786C39.2957 15.184 39.2463 13.9591 39.2308 13.5378C39.2155 13.1233 39.3473 8.33107 39.0928 8.30875C38.7535 8.27899 38.1485 13.4392 38.1436 13.4689C38.113 13.6537 37.3602 18.8881 37.2403 15.2984C37.2017 14.1414 37.2296 12.7487 37.2337 11.5999C37.2366 10.8184 37.4517 9.18181 37.1221 8.3613C36.8738 7.74332 36.9148 9.67986 36.8856 10.3452C36.838 11.429 36.818 12.0148 36.7345 13.1502C36.6427 14.3984 36.6757 15.9589 36.2582 17.1673C36.2114 17.303 36.1118 16.9097 36.1006 16.7666C36.0619 16.276 36.0644 15.6157 36.0644 15.1473C36.0644 13.2863 36.1201 11.4264 35.9528 9.57003C35.8869 8.83975 35.7031 7.88252 35.6539 9.24486C35.5918 10.9629 35.4211 12.6304 35.0988 14.3261C34.9158 15.2887 34.6364 16.5404 34.3564 17.4991C34.3518 17.515 34.0478 18.5528 33.8506 18.7275C33.7318 18.8327 33.6458 18.4647 33.6273 18.3071C33.5249 17.4354 33.6036 16.5183 33.6404 15.6465C33.6936 14.3843 33.7981 13.1201 33.7981 11.8561C33.7981 11.4046 33.7361 10.4127 33.4893 11.4423C33.2388 12.4873 33.1126 13.5595 32.9178 14.6152C32.8463 15.0024 31.9325 19.6241 31.2952 19.207C31.0098 19.0203 31.0246 18.0614 31.0226 17.9293C31.0079 16.9554 31.1728 15.9819 31.2689 15.0159C31.3385 14.3171 31.4115 13.5113 31.4397 12.8086C31.4514 12.5187 31.4561 12.2283 31.4496 11.9382C31.444 11.6922 31.5177 11.0729 31.3149 11.2123C31.0002 11.4287 31.1117 11.9509 31.0587 12.3291C30.9467 13.1287 30.8486 14.1393 30.7697 14.9305C30.5705 16.927 30.4453 18.9546 30.0273 20.9216C29.9646 21.217 30.0191 21.8448 29.7252 21.7756C29.4539 21.7118 29.6076 21.2266 29.6069 20.9479C29.6032 19.5081 29.8944 18.0678 30.0109 16.6352C30.0463 16.1998 30.0697 15.8354 30.0766 15.4068C30.0787 15.2761 30.1731 14.9815 30.047 15.0159C29.7853 15.0873 29.5692 17.5083 29.5347 17.683C29.1911 19.4217 28.7511 21.1506 28.2142 22.8398C28.1144 23.1539 27.3558 25.2401 27.5278 23.592C27.6965 21.9748 28.0148 20.3576 28.0303 18.7275C28.0401 17.703 27.6346 18.944 27.577 19.1676C27.0893 21.062 26.7881 23.0257 26.48 24.9551C26.082 27.4467 26.7704 24.9658 26.9103 24.3212C27.1152 23.3763 27.303 22.374 27.2978 21.4044C27.2975 21.3426 27.0705 19.8038 26.8216 20.5275C26.399 21.7563 26.3678 23.1966 26.1811 24.4723C25.9926 25.7602 25.8582 27.1162 25.4946 28.3711C24.8371 30.6405 26.7837 23.5995 26.1778 21.3158C25.998 20.638 25.5758 20.9086 25.4059 21.4044C24.9208 22.8202 24.9262 24.4962 24.6932 25.9667C24.5451 26.9011 23.9483 29.6714 24.2202 28.7652C24.4802 27.8983 24.5875 26.9488 24.7391 26.0587C24.9322 24.9252 25.1641 23.7352 24.9888 22.5836C24.8733 21.8249 24.748 22.1807 24.6373 22.7117C24.3773 23.9597 24.1537 25.2158 23.9049 26.466C23.642 27.7869 22.6826 31.6995 23.1428 30.4338C23.4108 29.6969 23.4752 28.7885 23.6092 28.0229C23.8148 26.8487 24.0654 25.6443 24.0461 24.446C24.0441 24.3246 24.0432 23.9957 23.987 23.8482C23.9262 23.6887 23.8562 23.8995 23.8424 23.9336C23.391 25.0538 23.2789 26.4075 23.018 27.5762C22.8898 28.1506 22.5571 29.6194 22.4005 30.217C22.0415 31.5869 22.1656 30.4419 22.2166 29.9871C22.3131 29.1254 22.4423 28.2755 22.637 27.4317" stroke="#2D2D2D" stroke-linecap="round" stroke-linejoin="round"/>
<path d="M14.9511 38.9016C16.0199 38.5704 16.5862 38.1481 17.3094 37.3119C17.797 36.7482 18.2668 36.1772 18.7941 35.6499C19.2239 35.22 17.9789 36.552 17.5788 37.0097C17.2388 37.3987 16.8999 37.7806 16.5343 38.1462C16.4079 38.2725 16.0403 38.5852 16.219 38.5797C16.5312 38.5703 17.0105 37.9216 17.2306 37.752C17.3594 37.6528 18.5246 36.747 18.0386 37.2331C17.6006 37.6711 16.1646 38.8347 16.6985 38.5206C17.2543 38.1937 18.182 37.6047 18.4525 36.99C18.6062 36.6407 17.8523 37.1647 17.7759 37.2856C17.6731 37.448 18.2943 36.9774 18.2029 37.0688C18.1142 37.1575 17.7725 37.6451 17.8448 37.6042C18.3651 37.3102 18.7589 36.6196 19.1193 36.1524C21.9848 32.4379 25.453 29.2856 28.5493 25.7764" stroke="#2D2D2D" stroke-linecap="round" stroke-linejoin="round"/>
<path d="M23.9968 28.0822C26.2923 25.5832 28.3832 22.9456 30.4675 20.2714C31.0492 19.5251 30.0192 21.1997 29.9387 21.3586C29.2863 22.6467 28.8606 24.1315 28.1026 25.3559C27.4368 26.4315 29.1729 23.0633 29.735 21.9301C30.164 21.0651 31.3487 18.4274 30.8649 19.263C30.5996 19.7213 30.474 20.3115 30.3361 20.8101C30.0109 21.9855 29.7154 23.1702 29.4098 24.3509C29.3746 24.4869 29.1271 25.2862 29.4821 24.5873C29.8649 23.8338 30.1782 23.0449 30.4938 22.2619C31.1006 20.7559 31.8948 19.2245 32.2215 17.624C32.3617 16.9369 31.9289 19.0003 31.8799 19.6999C31.8067 20.743 31.5227 23.8029 31.9226 22.8367C32.1234 22.3514 32.1761 21.7211 32.2806 21.2173C32.5416 19.9588 32.8262 18.7036 33.0623 17.4401C33.1466 16.9892 33.2567 16.498 33.2331 16.0343C33.2228 15.8306 32.9479 17.2068 32.9408 17.2463C32.6086 19.0853 32.3367 20.9386 31.9521 22.7677C31.6591 24.1613 32.2393 19.9338 32.4153 18.5207C32.4425 18.3016 32.7458 17.0565 32.458 16.8094C31.947 16.3707 30.9372 19.3363 30.9339 19.3451C30.4158 20.7508 29.9864 22.188 29.4361 23.5823C29.3688 23.7528 28.6415 25.9354 28.1453 24.8534C27.5359 23.5248 28.1687 21.7504 28.142 20.3502C28.1416 20.3302 28.1388 19.4599 27.853 19.9298C26.9382 21.4336 26.4082 23.268 25.7245 24.883C25.4376 25.5608 25.1674 26.2717 24.7983 26.9128C24.7468 27.0022 23.9709 28.3158 23.8786 27.6814C23.6591 26.1727 24.4421 24.5847 24.3976 23.0567C24.3666 21.9944 23.9357 23.4717 23.8786 23.6611C23.2039 25.8984 22.6292 28.4479 21.3035 30.4076C21.2554 30.4788 21.1623 30.6242 21.0998 30.5653C20.8148 30.2966 21.1212 29.7806 21.1754 29.3927C21.3287 28.2936 21.538 27.2067 21.7502 26.118C21.8822 25.4406 22.0432 24.7466 22.0852 24.0552C22.0897 23.9809 22.0165 23.7932 21.9801 23.8582C21.8798 24.0371 21.6887 24.6403 21.6451 24.7844C21.0852 26.6355 20.7933 28.561 20.2852 30.4274C20.1475 30.9334 19.7367 32.4266 19.7367 31.9021C19.7367 30.8785 20.1454 29.78 20.3444 28.7851C20.4906 28.054 20.629 27.317 20.6728 26.5712C20.6764 26.5112 20.7106 25.7548 20.5414 26.2559C20.0062 27.8412 19.738 29.5091 19.1882 31.0974C18.9105 31.8996 18.6323 32.8409 18.1371 33.5477C17.9916 33.7554 17.9138 33.6836 17.9138 33.482C17.9138 33.2681 18.0445 32.6517 18.078 32.4901C18.3845 31.0094 18.9026 29.4248 18.8105 27.8949C18.8073 27.8425 18.7668 27.5122 18.6626 27.7537C18.3016 28.591 18.1914 29.635 17.9729 30.5062C17.6283 31.8796 17.2946 33.2685 16.843 34.6119C16.3476 36.0857 16.7363 33.9365 16.751 33.863C17.0375 32.4305 17.383 31.0131 17.5984 29.5668C17.7695 28.4179 17.0486 31.0045 17.0401 31.0317C16.445 32.9251 14.6885 38.6026 15.1021 36.6615C15.5248 34.6785 16.319 32.656 16.4226 30.6244C16.4326 30.4264 16.2787 29.9279 16.1631 30.089C15.7074 30.7237 15.5656 31.7986 15.4043 32.5229C15.1229 33.7867 14.9189 35.0661 14.6883 36.3396C14.5527 37.0886 14.4504 37.6392 14.2941 38.3695C14.2396 38.6242 14.158 39.3837 14.1069 39.1283C14.039 38.7887 14.3269 38.0922 14.4058 37.7783C14.6348 36.8672 14.8823 35.966 15.043 35.0389C15.1676 34.3204 15.2733 33.59 15.3156 32.8612C15.3333 32.5578 15.467 31.7817 15.2171 31.9547C14.9397 32.1467 15.0206 32.6002 14.9248 32.9237C14.6116 33.9809 14.2822 35.0335 13.9558 36.0867C13.4186 37.8202 11.7889 43.0145 12.3628 41.2928C13.0563 39.2123 13.5981 36.9571 13.9394 34.7959C13.994 34.4501 14.2037 33.3968 13.9066 33.0353C13.7324 32.8235 13.2121 34.7619 13.2102 34.7696C12.5562 37.3962 11.8367 39.9939 11.0916 42.5968C11.0278 42.8198 10.8655 43.495 10.9438 43.2767C11.2965 42.2943 11.5233 41.2472 11.765 40.2352C12.0818 38.9087 12.4026 37.5706 12.5894 36.2181C12.666 35.6636 12.9651 34.2795 12.4712 34.543C12.3075 34.6302 12.2721 35.0087 12.2445 35.1572C12.0537 36.1836 11.8505 37.2006 11.6139 38.2184C11.2055 39.9751 10.53 41.9335 10.53 43.7563C10.53 45.391 11.4393 40.6075 11.6993 38.9936C11.833 38.1635 11.952 37.3203 11.8701 36.4776C11.8401 36.1688 11.7209 35.3274 11.5679 35.5973C11.4204 35.8576 11.3549 36.3051 11.2822 36.5728C10.8439 38.1852 10.4094 39.7986 9.97161 41.411C9.70003 42.4113 9.36865 43.4259 9.17016 44.446C9.08699 44.8735 9.52862 43.649 9.64971 43.2307C10.1348 41.5549 11.0044 39.3669 10.7106 37.5845C10.5618 36.6815 9.84123 39.3871 9.81394 39.4797C9.54381 40.3968 9.25779 41.3087 8.97637 42.2223C8.82481 42.7144 8.42942 44.0274 8.94352 42.4851C9.52864 40.7298 10.2378 38.878 10.3493 37.013C10.3573 36.8795 10.3149 36.5219 10.2344 36.6287C9.42618 37.7 9.06737 39.3896 8.62492 40.6162C8.09063 42.0973 7.56235 43.5804 7.01547 45.057C6.42738 46.6448 7.19739 44.4293 7.25853 44.2424C7.79718 42.5956 8.81573 40.6511 8.55266 38.8753C8.50122 38.5282 8.35064 38.6775 8.2439 38.8688C7.7814 39.6974 7.48917 40.6356 7.137 41.5129C6.81505 42.3148 6.50292 43.15 6.05636 43.8942C5.98264 44.0171 5.73189 44.3064 5.72134 44.1635C5.70553 43.9494 5.95732 42.9963 5.97096 42.9417C6.06681 42.5583 7.32544 38.9358 6.74284 38.6553C6.46077 38.5195 5.76767 40.4834 5.66878 40.7344" stroke="#2D2D2D" stroke-linecap="round" stroke-linejoin="round"/>
</g>
<path d="M43.6303 3.8694C43.4026 3.75378 43.1807 3.67841 42.9288 3.62502C42.6861 3.57359 42.2672 3.59867 42.0448 3.47419C41.9459 3.41882 42.2462 3.35987 42.3582 3.34206C42.5573 3.31038 42.7678 3.31891 42.9685 3.32452C43.2073 3.3312 43.6188 3.31265 43.8221 3.46951C43.9694 3.58314 43.5814 3.61713 43.5368 3.61567C43.234 3.60574 42.9738 3.45049 42.6739 3.4321C42.3213 3.41046 41.8111 3.4125 41.5046 3.61684" stroke="#2D2D2D" stroke-linecap="round" stroke-linejoin="round"/>
<path d="M44.4722 4.12194C44.1295 3.69816 43.7799 3.4036 43.2866 3.18654C43.2674 3.17813 43.2093 3.14405 43.2702 3.16316C43.3846 3.19905 43.4983 3.23808 43.6023 3.29879C43.8959 3.47022 44.0961 3.68492 44.312 3.93837C44.433 4.08038 44.196 3.77534 44.1623 3.74077C43.9476 3.52055 43.6828 3.32869 43.4035 3.20057C43.1574 3.0877 42.8854 3.10432 42.6201 3.11288C42.3552 3.12142 42.0753 3.12389 41.8156 3.17952C41.3793 3.27301 40.9385 3.52386 40.5996 3.80624" stroke="#2D2D2D" stroke-linecap="round" stroke-linejoin="round"/>
<path d="M42.5991 3.09058C42.0094 3.10609 41.4852 3.2437 40.9469 3.48578C40.6778 3.60683 40.4161 3.74269 40.1764 3.91607C39.8577 4.14656 39.6225 4.42701 39.3579 4.71116" stroke="#2D2D2D" stroke-linecap="round" stroke-linejoin="round"/>
<path d="M41.8623 4.10083C41.2269 4.55301 40.5722 4.97666 39.912 5.39169C39.9022 5.39784 39.2727 5.83281 39.6057 5.52264C40.1389 5.02589 40.7517 4.49897 41.4437 4.24114C41.478 4.22838 41.5374 4.1863 41.5513 4.22009C41.5663 4.25657 41.5009 4.28132 41.4706 4.30662C41.4101 4.35722 41.345 4.40217 41.28 4.44693C41.0256 4.62228 40.7564 4.77532 40.499 4.9462C40.3185 5.06602 40.1893 5.15535 40.0254 5.29113C39.9525 5.35156 39.743 5.4937 39.8372 5.50393C39.9084 5.51167 40.0803 5.37289 40.1213 5.34725C40.3469 5.20628 40.5743 5.06703 40.817 4.95672C40.9324 4.90428 41.2182 4.75392 41.1888 4.87721C41.163 4.98569 40.9198 5.09218 40.8404 5.13445C40.2514 5.44782 39.6099 5.68318 39 5.95293" stroke="#2D2D2D" stroke-linecap="round" stroke-linejoin="round"/>
</svg>
