<svg width="290" height="37" viewBox="0 0 290 37" fill="none" xmlns="http://www.w3.org/2000/svg">
<rect x="0.0439076" y="0.457298" width="22.5625" height="2.67861" rx="1.33931" transform="matrix(0.713471 0.700685 -0.567112 0.82364 258.826 14.7391)" stroke="#2D2D2D" stroke-width="0.6"/>
<path d="M273.83 31.6108C273.443 31.8658 272.96 32.2425 272.504 32.051C272.334 31.9796 272.219 31.8962 272.466 31.9192C272.593 31.9309 273.425 31.8386 273.425 31.9509C273.425 32.4056 272.703 32.2257 272.498 32.1003C272.423 32.054 272.204 31.8736 272.267 31.7317C272.319 31.6155 272.742 31.9436 272.797 31.9782C272.84 32.0055 273.16 32.2214 273.087 32.1866C272.793 32.0465 272.534 31.8297 272.275 31.6181C272.116 31.4881 271.883 31.2827 272.161 31.5775C272.362 31.7901 272.624 31.9673 272.79 32.2214C272.907 32.3999 272.5 31.9306 272.362 31.7748C272.313 31.7187 271.742 30.9816 271.713 31.0238C271.671 31.0839 272.333 31.8074 272.389 31.8752C272.398 31.8851 272.667 32.1945 272.658 32.2075C272.651 32.2178 272.468 31.9943 272.467 31.9933C272.244 31.7127 272.04 31.4083 271.787 31.1651C271.683 31.0655 271.732 31.1747 271.771 31.2442C271.878 31.4362 272.018 31.5984 272.148 31.7673C272.224 31.8651 272.408 32.0366 272.439 32.1737C272.465 32.2857 272.298 32.0166 272.232 31.9331C272.055 31.711 271.83 31.2636 271.577 31.1586C271.383 31.0784 271.841 31.5315 271.98 31.7097C272.059 31.811 272.344 32.1741 272.094 31.8658C271.843 31.5581 271.595 31.1035 271.291 30.8756C271.021 30.6728 271.73 31.43 271.94 31.7179C272.284 32.1894 271.243 30.7764 270.832 30.3903C270.708 30.2737 270.832 30.493 270.846 30.514C270.967 30.6963 271.104 30.8658 271.235 31.0384C271.303 31.1282 271.522 31.3784 271.444 31.3016C271.344 31.2037 271.257 31.0842 271.168 30.9731C271.121 30.9136 270.422 30.0711 270.409 30.0955C270.367 30.1738 270.899 30.7906 270.954 30.8674C271.065 31.0219 270.897 30.8131 270.892 30.8071C270.761 30.6378 270.622 30.4762 270.49 30.3071C270.448 30.2522 269.942 29.5974 270.1 29.8768C270.166 29.992 270.247 30.0946 270.322 30.1996C270.37 30.2664 270.513 30.4679 270.463 30.4034C270.229 30.1025 269.991 29.7854 269.725 29.5244C269.476 29.2797 269.878 29.8206 269.922 29.8776C270.269 30.3278 269.796 29.7313 269.691 29.6031C269.671 29.5798 269.319 29.1639 269.313 29.1826C269.285 29.277 269.522 29.5016 269.573 29.5587C269.776 29.7842 269.17 29.1013 268.95 28.8998C268.384 28.3814 267.905 27.7315 267.356 27.1917C267.245 27.0828 267.134 26.9739 267.023 26.865C266.849 26.6946 266.625 26.6101 266.453 26.4471C266.163 26.172 265.816 25.884 265.492 25.6689C265.089 25.4018 264.716 25.0088 264.356 24.6714C263.975 24.3145 263.607 23.9357 263.232 23.5683" stroke="#2D2D2D" stroke-linecap="round" stroke-linejoin="round"/>
<path d="M273.533 31.65C273.758 31.4027 273.915 31.2488 273.823 30.8934C273.752 30.6224 273.427 29.8756 273.476 30.1538C273.514 30.3663 273.993 30.821 273.871 31.0381C273.866 31.0474 273.365 31.4157 273.525 31.3946C274.08 31.3212 273.638 30.1864 273.445 29.887C272.746 28.8028 271.711 28.0708 270.938 27.0666" stroke="#2D2D2D" stroke-width="0.2" stroke-linecap="round" stroke-linejoin="round"/>
<path d="M258.928 16.0289C259.001 16.0471 259.873 16.3398 259.459 16.3165C259.122 16.2976 258.845 15.9664 258.555 15.8045C258.128 15.5665 259.363 16.3787 259.766 16.668C259.783 16.6802 260.03 16.8837 259.993 16.8618C259.844 16.7738 259.699 16.6499 259.559 16.5441C259.382 16.4103 259.209 16.2684 259.037 16.1256C258.854 15.9743 259.124 16.1833 259.158 16.208C259.355 16.3511 259.545 16.5073 259.738 16.6588C259.945 16.8224 260.149 17.0641 260.37 17.1983C260.453 17.2488 260.144 17.0163 260.204 16.9279C260.217 16.9096 260.793 17.4483 260.836 17.4874C261.421 18.0229 261.971 18.6394 262.538 19.1956C262.632 19.288 262.894 19.5927 262.8 19.5002C262.658 19.3611 262.515 19.224 262.379 19.0768C261.896 18.5531 261.369 18.0953 260.865 17.6004C260.462 17.2044 260.052 16.7991 259.611 16.4632C259.152 16.114 258.648 15.6967 258.12 15.5197" stroke="#2D2D2D" stroke-linecap="round" stroke-linejoin="round"/>
<path d="M258.779 15.7407C258.58 15.8874 258.391 15.9911 258.183 16.1016C258.122 16.1336 258.135 16.147 258.186 16.1524" stroke="#2D2D2D" stroke-linecap="round" stroke-linejoin="round"/>
<path d="M258.252 16.1695C258.267 16.1673 259.011 16.0508 258.667 16.0519C258.424 16.0526 258.181 16.0946 257.976 16.2671C257.793 16.4222 258.316 16.0878 258.373 16.0623C258.506 16.0025 258.439 16.0681 258.346 16.1099C258.202 16.175 257.954 16.2514 257.89 16.4453C257.829 16.6302 258.685 16.1899 258.73 16.2346C258.756 16.2602 258.041 16.8554 258.088 16.844C258.319 16.7878 258.551 16.7559 258.778 16.6702C259.025 16.5767 258.517 16.6876 258.456 16.7013C258.269 16.7431 258.265 16.7761 258.462 16.8017C258.822 16.8485 259.908 16.8728 259.546 16.9066C259.338 16.9259 259.132 16.943 258.926 16.9898C258.866 17.0036 258.371 17.1384 258.432 17.1977" stroke="#2D2D2D" stroke-linecap="round" stroke-linejoin="round"/>
<path d="M259.601 17.0689C259.732 17.1169 259.783 17.1081 259.537 17.1799C259.344 17.2365 258.738 17.363 258.558 17.4061C257.766 17.5966 258.758 17.4908 258.923 17.462C259.26 17.403 259.595 17.3214 259.933 17.2744C259.957 17.2711 260.592 17.2313 260.33 17.3432C259.775 17.5802 259.1 17.4923 258.576 17.8313C258.491 17.8866 258.765 17.8786 258.861 17.8721C259.485 17.8297 260.107 17.7983 260.73 17.8206C260.903 17.8268 261.402 17.8757 261.237 17.9447C260.91 18.0819 260.538 18.0948 260.198 18.1333C259.894 18.1676 259.582 18.1988 259.283 18.2811C259.244 18.2919 259.153 18.303 259.173 18.3441C259.181 18.3594 259.199 18.3638 259.214 18.3658C259.322 18.3798 259.66 18.362 259.711 18.36C260.269 18.3377 260.831 18.2853 261.387 18.3183C261.43 18.3208 261.734 18.3501 261.795 18.367C261.942 18.4078 261.504 18.4871 261.353 18.5138C261.205 18.54 259.48 18.7106 259.48 18.821C259.479 18.9683 261.351 18.9838 261.362 18.9845C261.429 18.9889 263.331 19.0643 262.046 19.2861C261.632 19.3576 261.131 19.4116 260.718 19.4643C260.437 19.5001 259.843 19.4853 259.559 19.6659C259.344 19.8019 260.038 19.6925 260.278 19.6735C260.669 19.6426 260.88 19.6234 261.29 19.6054C261.741 19.5857 262.3 19.4976 262.747 19.6197C262.797 19.6335 262.659 19.6949 262.608 19.7065C262.433 19.7464 262.196 19.7766 262.028 19.7988C261.359 19.8871 260.69 19.9513 260.028 20.1113C259.768 20.1742 259.43 20.2987 259.92 20.2552C260.539 20.2005 261.143 20.1948 261.762 20.253C262.113 20.286 262.571 20.3468 262.924 20.4217C262.93 20.4229 263.312 20.5044 263.381 20.5809C263.422 20.627 263.292 20.6815 263.236 20.6969C262.926 20.7822 262.595 20.7919 262.281 20.8174C261.826 20.8544 261.369 20.8694 260.915 20.9293C260.753 20.9507 260.398 21.0244 260.775 21.0817C261.158 21.1399 261.547 21.1433 261.932 21.177C262.073 21.1893 263.761 21.3631 263.63 21.6569C263.572 21.7885 263.227 21.8276 263.18 21.8347C262.831 21.8872 262.476 21.8625 262.126 21.8669C261.873 21.8701 261.582 21.8769 261.328 21.8981C261.224 21.9069 261.12 21.9186 261.016 21.9352C260.927 21.9492 260.703 21.9469 260.759 22.0275C260.846 22.1525 261.03 22.0798 261.168 22.0847C261.458 22.0949 261.824 22.0892 262.111 22.0856C262.834 22.0766 263.566 22.0343 264.285 22.1207C264.393 22.1337 264.617 22.0805 264.601 22.2101C264.586 22.3298 264.407 22.2867 264.307 22.3002C263.79 22.3701 263.264 22.3132 262.746 22.331C262.589 22.3364 262.457 22.3437 262.303 22.361C262.256 22.3663 262.147 22.3397 262.163 22.3923C262.197 22.5014 263.073 22.4795 263.137 22.4861C263.772 22.5514 264.406 22.6586 265.029 22.8093C265.145 22.8373 265.917 23.0646 265.32 23.0688C264.734 23.0729 264.143 23.0128 263.558 23.0834C263.189 23.1278 263.647 23.2432 263.729 23.2574C264.425 23.3773 265.139 23.4136 265.841 23.4547C266.748 23.5076 265.836 23.3293 265.6 23.2997C265.255 23.2564 264.889 23.2232 264.541 23.2714C264.519 23.2744 263.973 23.445 264.241 23.5177C264.695 23.6412 265.213 23.5863 265.677 23.6061C266.145 23.626 266.636 23.6195 267.098 23.7163C267.933 23.8914 265.345 23.3883 264.543 23.7571C264.305 23.8666 264.415 24.0353 264.599 24.0848C265.122 24.2263 265.724 24.1444 266.259 24.1749C266.599 24.1943 267.612 24.3195 267.278 24.2456C266.959 24.1749 266.615 24.1738 266.29 24.1508C265.877 24.1215 265.443 24.0783 265.035 24.2082C264.766 24.2939 264.897 24.3309 265.092 24.3533C265.548 24.4059 266.005 24.4425 266.462 24.4902C266.944 24.5406 268.378 24.7676 267.91 24.6297C267.637 24.5494 267.309 24.5648 267.03 24.5435C266.602 24.5108 266.162 24.4601 265.732 24.5252C265.689 24.5318 265.571 24.5479 265.519 24.579C265.464 24.6127 265.542 24.6328 265.554 24.6371C265.97 24.7781 266.46 24.7621 266.888 24.8189C267.098 24.8467 267.635 24.9201 267.855 24.9591C268.358 25.0485 267.943 25.0494 267.778 25.0491C267.465 25.0485 267.156 25.0332 266.847 24.9895" stroke="#2D2D2D" stroke-width="0.5" stroke-linecap="round" stroke-linejoin="round"/>
<path d="M271.2 27.7502C271.049 27.3064 270.88 27.0829 270.557 26.8116C270.34 26.6287 270.121 26.4538 269.915 26.2521C269.748 26.0877 270.264 26.5598 270.441 26.7101C270.591 26.8379 270.738 26.9655 270.881 27.1053C270.93 27.1537 271.053 27.2969 271.046 27.2204C271.033 27.0865 270.785 26.9112 270.718 26.8246C270.678 26.774 270.318 26.3159 270.507 26.5018C270.678 26.6694 271.139 27.2317 271.01 27.017C270.876 26.7935 270.636 26.4226 270.407 26.3354C270.277 26.2859 270.488 26.5852 270.534 26.6123C270.595 26.6488 270.407 26.404 270.443 26.439C270.477 26.4729 270.663 26.5967 270.646 26.5676C270.525 26.3578 270.265 26.2213 270.086 26.0885C268.665 25.0326 267.427 23.6909 266.073 22.526" stroke="#2D2D2D" stroke-width="0.5" stroke-linecap="round" stroke-linejoin="round"/>
<path d="M267.04 24.3741C266.072 23.5056 265.062 22.7317 264.038 21.9624C263.752 21.7477 264.385 22.1111 264.444 22.1382C264.927 22.3576 265.473 22.4702 265.936 22.7381C266.342 22.9733 265.08 22.3866 264.656 22.1986C264.332 22.0552 263.349 21.6709 263.664 21.8393C263.836 21.9316 264.052 21.9576 264.235 21.9933C264.667 22.0774 265.102 22.1483 265.535 22.2237C265.585 22.2323 265.88 22.3009 265.618 22.1814C265.336 22.0525 265.043 21.9552 264.752 21.8567C264.193 21.6672 263.619 21.3983 263.034 21.3338C262.783 21.306 263.537 21.3943 263.79 21.3822C264.167 21.3642 265.274 21.3412 264.915 21.2151C264.735 21.1518 264.507 21.159 264.323 21.138C263.863 21.0854 263.403 21.0226 262.942 20.981C262.778 20.9661 262.598 20.942 262.432 20.9742C262.359 20.9883 262.862 21.0412 262.876 21.0424C263.547 21.098 264.221 21.127 264.889 21.2057C265.399 21.2656 263.863 21.2166 263.35 21.2079C263.271 21.2066 262.814 21.1352 262.734 21.2707C262.592 21.5112 263.688 21.8048 263.691 21.8057C264.212 21.9618 264.741 22.0783 265.258 22.2488C265.322 22.2697 266.127 22.4789 265.754 22.7435C265.295 23.0685 264.639 22.8806 264.137 22.9585C264.13 22.9596 263.817 23.0021 263.995 23.1027C264.563 23.4247 265.238 23.5656 265.838 23.7829C266.09 23.8742 266.354 23.9566 266.595 24.0849C266.629 24.1028 267.124 24.3742 266.899 24.4439C266.364 24.6098 265.77 24.3485 265.223 24.4401C264.842 24.5037 265.386 24.619 265.456 24.6345C266.28 24.8186 267.213 24.9448 267.957 25.4218C267.984 25.4391 268.039 25.4723 268.019 25.5019C267.932 25.6372 267.737 25.5299 267.596 25.525C267.197 25.5112 266.8 25.4728 266.403 25.4332C266.155 25.4085 265.901 25.3722 265.652 25.3869C265.625 25.3885 265.56 25.4289 265.584 25.4415C265.651 25.4761 265.874 25.5297 265.927 25.5416C266.609 25.6945 267.309 25.7288 267.995 25.8587C268.181 25.8939 268.729 25.9997 268.541 26.0246C268.173 26.0731 267.767 25.9495 267.403 25.9111C267.136 25.8829 266.867 25.8584 266.598 25.8749C266.576 25.8762 266.304 25.8973 266.489 25.9463C267.074 26.1013 267.682 26.1375 268.269 26.2986C268.565 26.3799 268.912 26.4549 269.181 26.6343C269.26 26.687 269.236 26.7239 269.164 26.7335C269.087 26.7436 268.862 26.7166 268.803 26.7099C268.262 26.6483 267.677 26.5007 267.13 26.6128C267.111 26.6167 266.994 26.6498 267.084 26.6831C267.396 26.7986 267.774 26.7965 268.093 26.8491C268.597 26.9322 269.106 27.0098 269.602 27.1403C270.146 27.2834 269.363 27.2182 269.336 27.2153C268.813 27.1601 268.293 27.0787 267.767 27.0547C267.35 27.0356 268.3 27.2229 268.31 27.2253C269.008 27.3914 271.101 27.8774 270.391 27.7916C269.666 27.7039 268.916 27.4583 268.183 27.5101C268.112 27.5152 267.937 27.605 267.999 27.6471C268.24 27.8129 268.631 27.8229 268.896 27.8579C269.358 27.9189 269.824 27.946 270.288 27.9848C270.561 28.0076 270.762 28.0254 271.029 28.058C271.122 28.0693 271.397 28.0684 271.307 28.1025C271.187 28.1478 270.928 28.057 270.813 28.038C270.479 27.9827 270.148 27.9191 269.81 27.8939C269.548 27.8744 269.283 27.8636 269.02 27.88C268.91 27.8868 268.628 27.8661 268.697 27.9653C268.775 28.0755 268.935 28.0192 269.054 28.0451C269.443 28.1296 269.831 28.2213 270.22 28.3117C270.858 28.4605 272.773 28.9149 272.137 28.7498C271.369 28.5502 270.543 28.4242 269.756 28.38C269.631 28.3729 269.246 28.3326 269.125 28.4776C269.054 28.5625 269.766 28.6943 269.769 28.6947C270.732 28.8514 271.687 29.0375 272.644 29.2345C272.726 29.2513 272.974 29.2891 272.893 29.2658C272.53 29.1607 272.147 29.1129 271.776 29.0569C271.29 28.9836 270.8 28.9091 270.308 28.8929C270.107 28.8863 269.601 28.8233 269.71 29.0232C269.747 29.0894 269.884 29.0867 269.938 29.0915C270.312 29.1249 270.684 29.164 271.056 29.2175C271.699 29.3098 272.423 29.5074 273.078 29.421C273.665 29.3435 271.919 29.1793 271.332 29.144C271.03 29.1259 270.723 29.1148 270.423 29.1899C270.313 29.2174 270.015 29.3086 270.116 29.3616C270.214 29.4126 270.377 29.4196 270.475 29.4382C271.068 29.5501 271.66 29.6605 272.253 29.7722C272.62 29.8416 272.995 29.936 273.367 29.9729C273.523 29.9884 273.07 29.8566 272.916 29.8244C272.299 29.6953 271.487 29.4251 270.856 29.6359C270.536 29.7428 271.53 29.9243 271.564 29.9316C271.901 30.0043 272.238 30.084 272.574 30.1617C272.756 30.2035 273.239 30.3113 272.67 30.1633C272.021 29.995 271.335 29.7779 270.662 29.8184C270.614 29.8213 270.487 29.8565 270.527 29.886C270.937 30.1827 271.554 30.2569 272.008 30.3889C272.556 30.5484 273.105 30.7053 273.652 30.8704C274.24 31.0479 273.421 30.8219 273.352 30.8045C272.744 30.651 272.015 30.3053 271.385 30.5026C271.262 30.5411 271.32 30.5988 271.392 30.6356C271.704 30.7952 272.05 30.8763 272.375 30.9862C272.673 31.0866 272.983 31.1812 273.263 31.3379C273.31 31.3637 273.421 31.4578 273.37 31.4691C273.294 31.4861 272.944 31.423 272.924 31.4198C272.783 31.3967 271.444 31.0273 271.361 31.2911C271.321 31.4188 272.047 31.6237 272.141 31.6543" stroke="#2D2D2D" stroke-width="0.3" stroke-linecap="round" stroke-linejoin="round"/>
<rect x="0.386492" y="-0.00429685" width="23.9504" height="2.77134" rx="1.38567" transform="matrix(0.63565 -0.771977 0.652656 0.757654 271.492 31.1666)" stroke="#2D2D2D" stroke-width="0.6"/>
<path d="M272.951 29.9587C272.945 29.8722 272.868 29.1155 272.862 29.2531C272.838 29.7602 272.845 30.2688 272.905 30.7755C272.919 30.8937 272.965 31.5888 273.088 31.6455C273.102 31.6517 273.095 30.5624 273.093 30.5142C273.072 29.9777 273.079 29.4294 273.032 28.8943C273.03 28.8642 272.998 28.9423 272.996 28.9722C272.971 29.2341 272.977 29.5046 272.982 29.7686C272.991 30.2429 273.044 30.7126 273.146 31.1753C273.231 31.5625 273.229 31.3945 273.224 31.108C273.212 30.5495 273.221 29.9919 273.246 29.4355C273.278 28.7307 273.32 29.6414 273.328 29.8313C273.346 30.2644 273.368 30.7013 273.438 31.13C273.533 31.7142 273.578 30.9247 273.586 30.7533C273.616 30.115 273.576 29.4523 273.662 28.8216C273.691 28.6045 273.731 28.9079 273.734 28.9253C273.808 29.4008 273.848 29.8818 273.902 30.3601C273.94 30.701 273.971 31.0605 274.065 31.3906C274.141 31.6566 274.167 31.3244 274.172 31.2556C274.24 30.3157 274.146 29.3538 274.26 28.4198C274.349 27.696 274.506 29.1925 274.514 29.2769C274.561 29.7637 274.605 30.2511 274.664 30.7366C274.692 30.9709 274.708 31.6267 274.809 31.4278C274.879 31.2916 274.816 30.8021 274.813 30.6889C274.8 30.1864 274.79 29.6848 274.799 29.1829C274.808 28.6689 274.815 28.1437 274.878 27.6361C274.969 26.8955 275.047 28.0387 275.05 28.0856C275.102 28.9172 275.116 29.7542 275.202 30.5837C275.208 30.639 275.214 30.6943 275.223 30.749C275.226 30.7617 275.24 30.7295 275.24 30.7167C275.232 30.1905 275.201 29.6647 275.2 29.1382C275.2 28.6637 275.213 28.1892 275.25 27.7181C275.26 27.5895 275.271 27.4608 275.287 27.3334C275.3 27.233 275.319 26.9653 275.372 27.0478C275.498 27.2434 275.468 27.9341 275.481 28.1237C275.528 28.8205 275.556 29.5289 275.676 30.218C275.844 31.1912 275.836 29.5826 275.831 29.4372C275.811 28.7812 275.778 28.1253 275.77 27.4692C275.766 27.1211 275.767 26.6771 275.788 26.3248C275.798 26.1582 275.776 25.9649 275.858 25.8326C275.944 25.6948 275.928 26.1752 275.94 26.3493C275.962 26.6827 275.974 27.0176 276.013 27.3498C276.024 27.4372 276.192 28.4255 276.226 27.9235C276.272 27.2267 276.281 26.5236 276.368 25.8329C276.391 25.6474 276.431 25.1343 276.512 25.2998C276.657 25.5989 276.572 26.2331 276.579 26.554C276.585 26.8713 276.577 27.2024 276.647 27.5147C276.679 27.659 276.79 27.9014 276.864 27.634C277.1 26.7833 276.958 25.7198 277.023 24.8311C277.032 24.7024 277.044 24.5739 277.06 24.4464C277.072 24.3515 277.072 24.1159 277.138 24.1755C277.227 24.2564 277.216 24.8332 277.221 24.9061C277.254 25.4061 277.282 25.9066 277.333 26.4054C277.349 26.5613 277.37 27.3219 277.548 27.4245C277.678 27.4989 277.596 27.0917 277.589 26.9233C277.567 26.3842 277.538 25.8473 277.535 25.3079C277.531 24.6962 277.523 24.0603 277.604 23.4572C277.616 23.3671 277.62 23.2656 277.668 23.1951C277.685 23.1686 277.73 23.2245 277.739 23.2575C277.799 23.4755 277.847 24.1553 277.858 24.3202C277.927 25.3041 277.835 26.4423 278.132 27.3929C278.143 27.4301 278.155 27.4809 278.186 27.4935C278.272 27.5275 278.233 27.2884 278.232 27.1826C278.23 26.4882 278.139 25.7906 278.111 25.0962C278.086 24.4619 278.076 23.8248 278.098 23.1919C278.101 23.0908 278.107 22.9899 278.117 22.8897C278.136 22.6896 278.145 22.8658 278.149 22.9356C278.207 24.1957 278.102 25.5006 278.338 26.7481C278.494 27.5741 278.576 26.4734 278.585 26.2541C278.596 25.9892 278.657 23.0306 278.829 23.0624C278.94 23.0829 278.867 24.5595 278.885 24.7634C278.896 24.8878 278.895 25.1761 278.988 25.121C279.101 25.0536 279.103 24.8522 279.142 24.709C279.205 24.4808 279.351 23.8792 279.403 23.6575C279.409 23.6358 279.584 23.0583 279.551 22.9504C279.531 22.8857 279.475 23.0497 279.435 23.0972C279.287 23.2726 279.108 23.3475 278.908 23.4095C278.666 23.4845 278.675 23.4262 278.833 23.1966C279.104 22.8057 279.392 22.4149 279.69 22.0531C280.298 21.3149 281.072 20.7124 281.806 20.1624C282.009 20.0108 281.977 19.9721 281.781 20.1209C281.38 20.4238 280.979 20.731 280.594 21.0588C280.04 21.5292 278.581 23.2296 279.057 22.6523C279.283 22.3779 279.486 22.0671 279.654 21.7387C279.762 21.528 279.851 21.3052 279.933 21.0782C279.971 20.9718 280.041 20.5733 280.001 20.9768C279.927 21.7338 279.859 22.4932 279.801 23.2529C279.778 23.555 279.714 23.9615 279.799 24.2751C279.844 24.4377 279.882 24.4121 279.907 24.2536C279.991 23.7146 279.989 23.1429 280.027 22.5965C280.072 21.9458 280.188 19.9989 280.222 20.6538C280.266 21.5001 280.093 22.3491 280.193 23.1964C280.203 23.2805 280.21 23.3659 280.231 23.4474C280.258 23.5531 280.304 23.6473 280.359 23.4866C280.475 23.1446 280.477 22.7211 280.514 22.3577C280.562 21.8791 280.623 21.4037 280.686 20.9281C280.733 20.5734 280.828 19.5095 280.853 19.8701C280.876 20.2082 280.786 20.6322 280.754 20.9551C280.687 21.6298 280.58 22.3332 280.609 23.0191C280.613 23.1367 280.666 23.4189 280.738 23.3415C280.922 23.145 280.916 22.4421 280.94 22.1923C280.989 21.6763 281.011 21.1568 281.042 20.6383C281.061 20.3226 281.042 19.8859 281.127 19.5798C281.232 19.2027 281.089 20.3793 281.067 20.7786C281.024 21.5402 280.981 22.3041 281.004 23.0703C281.005 23.0959 280.993 23.7234 281.086 23.7685C281.108 23.779 281.119 23.7292 281.127 23.7039C281.171 23.5621 281.201 23.2615 281.214 23.1425C281.371 21.7133 281.463 20.2732 281.661 18.8517C281.733 18.3403 281.71 18.7124 281.693 18.9168C281.645 19.4732 281.586 20.0268 281.553 20.5856C281.519 21.1621 281.491 21.7456 281.504 22.3257C281.51 22.5428 281.549 23.1321 281.654 22.958C281.763 22.7746 281.752 22.372 281.769 22.1681C281.816 21.6281 281.859 21.0879 281.915 20.5495C281.972 20.0082 282.04 19.4697 282.111 18.9312C282.126 18.8135 282.195 18.1727 282.135 18.6954C282.03 19.607 281.976 20.5493 281.981 21.4733C281.982 21.531 281.955 22.0477 282.045 22.1124C282.106 22.1565 282.129 21.9781 282.151 21.8992C282.215 21.6591 282.258 21.4017 282.298 21.1552C282.404 20.5105 282.49 19.8604 282.592 19.2146C282.667 18.738 282.704 18.1082 282.868 17.6558C282.957 17.4106 282.833 18.1933 282.808 18.4608C282.75 19.0645 282.669 19.6973 282.739 20.3099C282.794 20.7838 282.957 20.7114 283.036 20.3384C283.255 19.3013 283.348 18.2168 283.537 17.1689C283.625 16.6767 283.533 17.1336 283.523 17.1791C283.384 17.8357 283.268 18.4997 283.17 19.1681C283.099 19.6474 283.015 20.1424 283.003 20.6332C282.994 21.0188 283.129 20.5547 283.145 20.4969C283.413 19.5275 283.536 18.4884 283.708 17.4886C283.762 17.1766 283.921 16.2406 283.881 16.556C283.773 17.4157 283.632 18.2676 283.544 19.1321C283.517 19.3973 283.474 19.9097 283.656 19.3335C283.846 18.7324 283.954 18.0974 284.077 17.4718C284.114 17.2847 284.148 17.0969 284.187 16.9105C284.266 16.5281 284.244 16.684 284.21 16.9918C284.119 17.8136 284.101 17.8488 284.023 18.7547C283.997 19.0487 283.915 19.8748 283.963 20.2529C284.038 20.844 284.413 20.0323 284.444 19.958C284.751 19.2143 284.884 18.3509 285.013 17.5397C285.174 16.5255 285.334 15.4785 285.382 14.4417C285.389 14.2966 285.425 14.1322 285.362 14.0049C285.333 13.9449 285.255 14.0708 285.229 14.1309C285.059 14.5204 284.822 15.5027 284.747 15.8624C284.571 16.711 284.412 17.626 284.457 18.5155C284.467 18.7175 284.534 19.3411 284.748 19.4673C285.269 19.7743 285.757 15.3017 285.754 14.7434C285.753 14.6844 285.772 14.1112 285.647 14.048C285.619 14.0342 285.588 14.0699 285.569 14.0962C285.466 14.2423 285.377 14.5651 285.337 14.7128C285.164 15.3422 285.06 15.9974 284.992 16.6575C284.958 16.9933 284.754 18.0598 285.02 18.3775C285.338 18.7563 285.73 17.1475 285.756 17.0164C285.928 16.1713 286.231 13.5931 286.234 14.4692C286.238 15.3353 285.932 16.1761 285.877 17.0363C285.869 17.1681 285.908 17.4788 286.002 17.4103C286.246 17.2318 286.359 16.6684 286.437 16.3777C286.627 15.6691 286.975 13.4661 286.863 14.2004C286.752 14.9309 286.538 15.6619 286.49 16.4045C286.48 16.5581 286.518 16.6269 286.592 16.4539C286.726 16.1364 286.8 15.7689 286.872 15.4246C287.007 14.7799 287.285 12.814 287.244 13.48C287.188 14.3782 286.955 15.2468 286.791 16.1174C286.761 16.2806 286.653 16.7004 286.776 16.6217C286.948 16.5117 287.031 15.9921 287.077 15.8006C287.2 15.2907 287.283 14.7672 287.37 14.2464C287.423 13.929 287.452 13.5263 287.551 13.2165C287.736 12.6366 287.348 14.4415 287.306 15.0646C287.275 15.5146 287.393 15.4722 287.523 15.1073C287.611 14.862 287.68 14.6054 287.739 14.3475C287.779 14.1725 287.94 13.673 287.816 13.4955C287.713 13.3498 287.166 13.9693 287.085 14.0366C286.63 14.4156 286.155 14.7995 285.616 14.9963C285.143 15.1686 285.571 14.7163 285.713 14.5809C286.124 14.1869 286.569 13.8309 287.021 13.5022C287.316 13.2873 286.433 13.9365 286.141 14.1574C285.792 14.4216 285.449 14.6954 285.101 14.962C284.913 15.1064 284.36 15.5402 284.509 15.3417C284.646 15.1594 284.851 15.0121 285.015 14.87C285.491 14.4573 285.987 14.0758 286.494 13.7172C286.554 13.6744 286.947 13.3907 286.568 13.7117C286.007 14.1874 285.442 14.6559 284.873 15.1184C284.441 15.4697 283.191 16.5936 283.578 16.175C284.073 15.639 284.671 15.1823 285.223 14.7327C285.515 14.4951 285.805 14.2351 286.115 14.0289C286.247 13.941 285.909 14.2918 285.794 14.4089C284.778 15.4494 283.715 16.4283 282.709 17.4822C282.304 17.9063 281.903 18.3385 281.521 18.7918C281.422 18.909 280.946 19.3829 280.923 19.6213C280.904 19.8106 281.198 19.4303 281.322 19.3126C281.923 18.7414 282.506 18.1426 283.1 17.5599C283.595 17.0735 284.087 16.5791 284.594 16.1092C284.599 16.1044 285.157 15.5975 284.73 16.0777C283.31 17.676 281.767 19.1335 280.292 20.6601C279.563 21.4147 280.458 20.5172 280.607 20.3686C281.051 19.9265 281.495 19.4826 281.944 19.0482C282.364 18.643 282.841 18.0501 283.351 17.7946C283.582 17.6792 283.045 18.2634 282.866 18.4685C282.138 19.3028 281.385 20.106 280.654 20.9368C280.027 21.6492 279.418 22.3801 278.823 23.1302C278.623 23.3825 278.309 23.7782 278.108 24.0563C278.035 24.1575 277.806 24.4006 277.919 24.3884C278.12 24.367 278.542 23.7601 278.647 23.6409C279.084 23.1466 279.512 22.6424 279.964 22.1669C280.368 21.7413 280.787 21.3069 281.246 20.9641C281.867 20.5007 281.099 21.4994 281.073 21.5324C278.675 24.5505 275.779 27.1945 274.205 31.0021" stroke="#2D2D2D" stroke-width="0.3" stroke-linecap="round" stroke-linejoin="round"/>
<path d="M166.19 7.45832C166.4 8.61244 167.137 17.9386 168.973 18.3564C169.464 18.4683 169.26 14.8335 169.202 14.5083C168.095 8.27489 161.779 1.24563 156.323 7.34082C151.053 13.2285 150.507 24.5628 155.204 30.8701C160.81 38.3968 169.38 33.9513 176 30.7232" stroke="#2D2D2D" stroke-width="2" stroke-linecap="round" stroke-linejoin="round"/>
<path d="M2.40489 14.0096C2.37206 13.8705 0.497371 6.91297 1.13049 8.30239C1.97132 10.1476 2.82695 12.0077 3.76817 13.8048C5.25218 16.6381 8.88103 27.856 12.9556 27.9997C15.7939 28.0998 15.6964 5.55818 12.5407 4" stroke="#2D2D2D" stroke-width="2" stroke-linecap="round" stroke-linejoin="round"/>
<path d="M22 13C24.7407 18.7418 27.1103 24.8241 30.4585 30.2644C31.7481 32.3599 30.3725 29.3704 30.0415 28.8013" stroke="#2D2D2D" stroke-width="2" stroke-linecap="round" stroke-linejoin="round"/>
<path d="M34 25.7655C34.8221 25.2142 47.346 17.8897 46.3441 16.1057C45.7731 15.0888 43.8632 14.655 42.8549 14.2781C39.4217 12.9949 35.7657 16.3952 34.6451 19.4997C33.2797 23.282 36.6673 30.9881 40.9784 31.9153C44.6157 32.6976 50.1779 27.8595 53 25.7655" stroke="#2D2D2D" stroke-width="2" stroke-linecap="round" stroke-linejoin="round"/>
<path d="M53 16.758C54.4234 19.5134 64.9124 40.2034 64.9124 26.1529C64.9124 23.0648 64.1048 20.2161 63.1285 17.3247C62.8185 16.4068 61.893 14.3217 62.8407 16.4597C63.9369 18.9326 68.0496 33.2355 72.6814 28.7775C75.4072 26.154 77.7292 15.4145 74.2352 13" stroke="#2D2D2D" stroke-width="2" stroke-linecap="round" stroke-linejoin="round"/>
<path d="M125.34 2C124.075 13.2444 126.425 22.7385 130.957 32.8412C131.279 33.5593 129.691 31.6608 129.509 30.7503" stroke="#2D2D2D" stroke-width="2" stroke-linecap="round" stroke-linejoin="round"/>
<path d="M130 1C131.641 10.5475 133.093 20.1183 134.632 29.6828C134.895 31.3163 135.141 32.4621 134.905 34" stroke="#2D2D2D" stroke-width="2" stroke-linecap="round" stroke-linejoin="round"/>
<path d="M188.793 19.2145C186.861 15.1163 185.253 10.1464 181.186 15.0152C179.026 17.6003 178.785 20.794 179.127 24.0554C179.38 26.4755 179.918 33.8422 183.646 32.9207C185.866 32.3718 188.11 29.6087 189.308 27.7882C191.224 24.8766 192.397 21.6827 192.397 18.1647C192.397 16.6431 191.596 12.1522 191.596 13.6737C191.596 18.8744 193.187 26.4606 196 30.7627" stroke="#2D2D2D" stroke-width="2" stroke-linecap="round" stroke-linejoin="round"/>
<path d="M208.325 14.3224C208.018 14.2923 190.107 12.6123 196.302 17.2291C201.51 21.1105 207.905 23.0804 213.21 26.8214C216.291 28.9937 215.213 31.3805 211.367 30.949C208.229 30.5969 198.848 29.4956 202.006 29.4956" stroke="#2D2D2D" stroke-width="2" stroke-linecap="round" stroke-linejoin="round"/>
<path d="M223 3C224.46 13.5574 226.996 24.1124 227.955 34.7298C228.206 37.5088 227.355 34.9849 226.547 34.1433" stroke="#2D2D2D" stroke-width="2" stroke-linecap="round" stroke-linejoin="round"/>
<path d="M219 26C224.902 24.3025 230.823 22.614 236.813 21.2477C238.172 20.9377 238.921 20.8506 240 21.39" stroke="#2D2D2D" stroke-width="2" stroke-linecap="round" stroke-linejoin="round"/>
<path d="M102 32.429C103.447 23.4408 105.29 14.5622 108.044 5.90756C108.73 3.75416 109.542 1.51744 111.352 4.29477C114.878 9.70685 115.305 17.5116 116.883 23.708C117.189 24.9107 120.249 33.6044 118.422 32.9666" stroke="#2D2D2D" stroke-width="2" stroke-linecap="round" stroke-linejoin="round"/>
<path d="M103 26C109.326 24.6178 115.656 23.2928 122 22" stroke="#2D2D2D" stroke-width="2" stroke-linecap="round" stroke-linejoin="round"/>
</svg>
